<?xml version="1.0" encoding="utf-8"?>
<svg xmlns="http://www.w3.org/2000/svg" style="margin: auto; background: none; display: block; shape-rendering: auto;" width="286" height="250" preserveAspectRatio="xMidYMid">
<style type="text/css">
  text {
    text-anchor: middle; font-size: 69px; opacity: 0;
  }
</style>
<g style="transform-origin: 143px 125px; transform: scale(0.8625);">
<g transform="translate(143,125)">
  <g transform="translate(0,0)"><g class="path" style="transform: matrix(1, 0, 0, 1, 0, 14.925); opacity: 0.05; transform-origin: -122.44px -0.443802px; animation: 11.1111s linear 0s 1 normal forwards running float-btt-in-559632af-4aac-4adc-a1d1-3edf0a1dd310;"><path d="M16.80-10.88L16.80-10.88L16.80-10.88Q16.80 1.12 24.56 4.96L24.56 4.96L24.56 4.96Q26.48 5.20 29.64 5.20L29.64 5.20L29.64 5.20Q32.80 5.20 36.32 4L36.32 4L36.32 4Q39.84 2.80 41.76 1.04L41.76 1.04L41.76 1.04Q45.84-2.72 46.88-5.44L46.88-5.44L47.28-6.64L48.88-6L48.88-6Q48.32-4.16 46.72-1.76L46.72-1.76L46.72-1.76Q45.12 0.64 43.08 2.32L43.08 2.32L43.08 2.32Q41.04 4 37.16 5.40L37.16 5.40L37.16 5.40Q33.28 6.80 28.56 6.80L28.56 6.80L28.56 6.80Q18.48 6.80 12.92 0.96L12.92 0.96L12.92 0.96Q7.36-4.88 7.36-15.52L7.36-15.52L7.36-15.52Q7.36-30 16.72-39.36L16.72-39.36L16.72-39.36Q26.08-48.72 41.28-48.72L41.28-48.72L41.28-48.72Q48.32-48.72 51.44-46.20L51.44-46.20L51.44-46.20Q54.56-43.68 54.56-38.32L54.56-38.32L54.56-38.32Q54.56-34.72 51.04-29.44L51.04-29.44L51.04-29.44Q47.84-24.32 47.84-21.44L47.84-21.44L46.08-21.44L46.08-21.44Q46.08-23.04 46.72-24.88L46.72-24.88L46.72-24.88Q47.36-26.72 47.84-27.52L47.84-27.52L47.84-27.52Q48.32-28.32 49.60-30.40L49.60-30.40L49.60-30.40Q52.72-35.12 52.72-38.16L52.72-38.16L52.72-38.16Q52.72-44.56 47.44-46.24L47.44-46.24L47.44-46.24Q44.96-47.04 42.24-47.04L42.24-47.04L42.24-47.04Q39.52-47.04 36.48-46.72L36.48-46.72L36.48-46.72Q33.68-45.84 31.16-44.44L31.16-44.44L31.16-44.44Q28.64-43.04 25.92-40.20L25.92-40.20L25.92-40.20Q23.20-37.36 21.28-33.60L21.28-33.60L21.28-33.60Q19.36-29.84 18.08-23.96L18.08-23.96L18.08-23.96Q16.80-18.08 16.80-10.88" fill="#dc0c58" stroke="none" stroke-width="none" transform="translate(-153.4000244140625,20.516199188232424)" style="fill: rgb(220, 12, 88);"></path></g><g class="path" style="transform: matrix(1, 0, 0, 1, 0, 14.925); opacity: 0.05; transform-origin: -79.96px -5.0438px; animation: 11.1111s linear 0.916667s 1 normal forwards running float-btt-in-559632af-4aac-4adc-a1d1-3edf0a1dd310;"><path d="M86.24-0.88L86.24-0.88L86.24-0.88Q88.16-0.88 90.24-3.12L90.24-3.12L91.44-2.16L91.44-2.16Q90.88-1.04 88.96-0.16L88.96-0.16L88.96-0.16Q87.04 0.72 84.72 0.72L84.72 0.72L84.72 0.72Q77.44 0.72 77.44-5.84L77.44-5.84L77.44-5.84Q77.44-8.64 78.88-15.84L78.88-15.84L78.88-15.84Q80.32-23.04 80.32-25.28L80.32-25.28L80.32-25.28Q80.32-28.72 77.04-28.72L77.04-28.72L77.04-28.72Q74.32-28.72 71.80-25.04L71.80-25.04L71.80-25.04Q69.28-21.36 67.68-15.04L67.68-15.04L65.04 0L55.44 0L64.32-50.24L64.32-50.24Q61.92-50 60.32-48L60.32-48L59.12-48.96L59.12-48.96Q61.52-51.84 65.16-51.84L65.16-51.84L65.16-51.84Q68.80-51.84 70.80-50L70.80-50L70.80-50Q72.80-48.16 72.80-44.80L72.80-44.80L72.80-44.80Q72.80-44.16 72.64-42.72L72.64-42.72L69.28-23.76L69.28-23.76Q72.56-31.12 79.44-31.12L79.44-31.12L79.44-31.12Q84.16-31.12 86.80-28.44L86.80-28.44L86.80-28.44Q89.44-25.76 89.44-21.04L89.44-21.04L89.44-21.04Q89.44-18.56 87.92-11.48L87.92-11.48L87.92-11.48Q86.40-4.40 86.24-0.88" fill="#dc0c58" stroke="none" stroke-width="none" transform="translate(-153.4000244140625,20.516199188232424)" style="fill: rgb(38, 214, 196);"></path></g><g class="path" style="transform: matrix(1, 0, 0, 1, 0, 14.925); opacity: 0.05; transform-origin: -40.92px 5.3162px; animation: 11.1111s linear 1.83333s 1 normal forwards running float-btt-in-559632af-4aac-4adc-a1d1-3edf0a1dd310;"><path d="M123.44 0.72L123.44 0.72L123.44 0.72Q116.40 0.72 115.76-5.44L115.76-5.44L115.76-5.44Q112.24 0.72 106.88 0.72L106.88 0.72L106.88 0.72Q101.52 0.72 98.36-2.52L98.36-2.52L98.36-2.52Q95.20-5.76 95.20-11.60L95.20-11.60L95.20-11.60Q95.20-20.72 99.68-25.92L99.68-25.92L99.68-25.92Q104.16-31.12 111.28-31.12L111.28-31.12L111.28-31.12Q117.12-31.12 119.04-25.60L119.04-25.60L119.04-25.60Q119.44-28 119.92-30.40L119.92-30.40L119.92-30.40Q125.84-30.40 128.72-30.88L128.72-30.88L129.76-31.12L124.24-0.88L124.24-0.88Q126.64-1.12 128.24-3.12L128.24-3.12L129.44-2.16L129.44-2.16Q127.04 0.72 123.44 0.72zM104.24-7.52L104.24-7.52Q104.24-3.92 105.16-2.52L105.16-2.52L105.16-2.52Q106.08-1.12 108-1.12L108-1.12L108-1.12Q109.92-1.12 111.92-3.20L111.92-3.20L111.92-3.20Q114.56-5.92 116.16-10.08L116.16-10.08L116.16-10.08Q116.40-11.12 117.08-15.08L117.08-15.08L117.08-15.08Q117.76-19.04 118.24-21.60L118.24-21.60L118.24-21.60Q118-24.64 116.56-26.88L116.56-26.88L116.56-26.88Q115.12-29.12 112.96-29.12L112.96-29.12L112.96-29.12Q109.04-29.12 106.64-22.12L106.64-22.12L106.64-22.12Q104.24-15.12 104.24-7.52L104.24-7.52" fill="#dc0c58" stroke="none" stroke-width="none" transform="translate(-153.4000244140625,20.516199188232424)" style="fill: rgb(226, 187, 139);"></path></g><g class="path" style="transform: matrix(1, 0, 0, 1, 0, 14.925); opacity: 0.05; transform-origin: -6.92002px -0.6038px; animation: 11.1111s linear 2.75s 1 normal forwards running float-btt-in-559632af-4aac-4adc-a1d1-3edf0a1dd310;"><path d="M134.80-30.40L138.88-30.40L141.04-42.24L141.04-42.24Q146.96-42.24 149.84-42.72L149.84-42.72L150.88-42.96L150.88-42.96Q149.76-37.36 148.40-30.40L148.40-30.40L158.32-30.40L158.16-28.96L148.16-28.96L148.16-28.96Q144.16-8.32 144.16-4.08L144.16-4.08L144.16-4.08Q144.16-1.52 146.88-1.52L146.88-1.52L146.88-1.52Q149.60-1.52 151.84-4.96L151.84-4.96L151.84-4.96Q154.08-8.40 155.04-12.40L155.04-12.40L156.48-11.92L156.48-11.92Q153.52 0.72 144.24 0.72L144.24 0.72L144.24 0.72Q140.40 0.72 137.84-1.40L137.84-1.40L137.84-1.40Q135.28-3.52 135.28-7.32L135.28-7.32L135.28-7.32Q135.28-11.12 138.56-28.96L138.56-28.96L134.64-28.96L134.80-30.40" fill="#dc0c58" stroke="none" stroke-width="none" transform="translate(-153.4000244140625,20.516199188232424)" style="fill: rgb(225, 231, 231);"></path></g><g class="path" style="transform: matrix(1, 0, 0, 1, 0, 14.925); opacity: 0.05; transform-origin: 32.52px -0.443802px; animation: 11.1111s linear 3.66667s 1 normal forwards running float-btt-in-559632af-4aac-4adc-a1d1-3edf0a1dd310;"><path d="M171.76-10.88L171.76-10.88L171.76-10.88Q171.76 1.12 179.52 4.96L179.52 4.96L179.52 4.96Q181.44 5.20 184.60 5.20L184.60 5.20L184.60 5.20Q187.76 5.20 191.28 4L191.28 4L191.28 4Q194.80 2.80 196.72 1.04L196.72 1.04L196.72 1.04Q200.80-2.72 201.84-5.44L201.84-5.44L202.24-6.64L203.84-6L203.84-6Q203.28-4.16 201.68-1.76L201.68-1.76L201.68-1.76Q200.08 0.64 198.04 2.32L198.04 2.32L198.04 2.32Q196.00 4 192.12 5.40L192.12 5.40L192.12 5.40Q188.24 6.80 183.52 6.80L183.52 6.80L183.52 6.80Q173.44 6.80 167.88 0.96L167.88 0.96L167.88 0.96Q162.32-4.88 162.32-15.52L162.32-15.52L162.32-15.52Q162.32-30 171.68-39.36L171.68-39.36L171.68-39.36Q181.04-48.72 196.24-48.72L196.24-48.72L196.24-48.72Q203.28-48.72 206.40-46.20L206.40-46.20L206.40-46.20Q209.52-43.68 209.52-38.32L209.52-38.32L209.52-38.32Q209.52-34.72 206.00-29.44L206.00-29.44L206.00-29.44Q202.80-24.32 202.80-21.44L202.80-21.44L201.04-21.44L201.04-21.44Q201.04-23.04 201.68-24.88L201.68-24.88L201.68-24.88Q202.32-26.72 202.80-27.52L202.80-27.52L202.80-27.52Q203.28-28.32 204.56-30.40L204.56-30.40L204.56-30.40Q207.68-35.12 207.68-38.16L207.68-38.16L207.68-38.16Q207.68-44.56 202.40-46.24L202.40-46.24L202.40-46.24Q199.92-47.04 197.20-47.04L197.20-47.04L197.20-47.04Q194.48-47.04 191.44-46.72L191.44-46.72L191.44-46.72Q188.64-45.84 186.12-44.44L186.12-44.44L186.12-44.44Q183.60-43.04 180.88-40.20L180.88-40.20L180.88-40.20Q178.16-37.36 176.24-33.60L176.24-33.60L176.24-33.60Q174.32-29.84 173.04-23.96L173.04-23.96L173.04-23.96Q171.76-18.08 171.76-10.88" fill="#dc0c58" stroke="none" stroke-width="none" transform="translate(-153.4000244140625,20.516199188232424)" style="fill: rgb(145, 188, 198);"></path></g><g class="path" style="transform: matrix(1, 0, 0, 1, 0, 14.925); opacity: 0.05; transform-origin: 73.48px 5.3162px; animation: 11.1111s linear 4.58333s 1 normal forwards running float-btt-in-559632af-4aac-4adc-a1d1-3edf0a1dd310;"><path d="M223.76 0.72L223.76 0.72Q217.60 0.72 214.40-2.36L214.40-2.36L214.40-2.36Q211.20-5.44 211.20-10.12L211.20-10.12L211.20-10.12Q211.20-14.80 212.04-18.12L212.04-18.12L212.04-18.12Q212.88-21.44 214.80-24.52L214.80-24.52L214.80-24.52Q216.72-27.60 220.60-29.36L220.60-29.36L220.60-29.36Q224.48-31.12 230.28-31.12L230.28-31.12L230.28-31.12Q236.08-31.12 239.32-28.04L239.32-28.04L239.32-28.04Q242.56-24.96 242.56-19.60L242.56-19.60L242.56-19.60Q242.56-10.48 237.72-4.88L237.72-4.88L237.72-4.88Q232.88 0.72 223.76 0.72L223.76 0.72zM220.24-7.52L220.24-7.52L220.24-7.52Q220.24-1.12 223.96-1.12L223.96-1.12L223.96-1.12Q227.68-1.12 230.60-7.56L230.60-7.56L230.60-7.56Q233.52-14 233.52-22.88L233.52-22.88L233.52-22.88Q233.52-29.60 229.88-29.60L229.88-29.60L229.88-29.60Q226.24-29.60 223.24-23.48L223.24-23.48L223.24-23.48Q220.24-17.36 220.24-7.52" fill="#dc0c58" stroke="none" stroke-width="none" transform="translate(-153.4000244140625,20.516199188232424)" style="fill: rgb(7, 204, 157);"></path></g><g class="path" style="transform: matrix(1, 0, 0, 1, 0, 14.925); opacity: 0.05; transform-origin: 108.12px 4.9562px; animation: 11.1111s linear 5.5s 1 normal forwards running float-btt-in-559632af-4aac-4adc-a1d1-3edf0a1dd310;"><path d="M248.16-27.28L246.96-28.24L246.96-28.24Q249.36-31.12 253-31.12L253-31.12L253-31.12Q256.64-31.12 258.64-29.28L258.64-29.28L258.64-29.28Q260.64-27.44 260.64-24.08L260.64-24.08L260.64-23.60L260.64-23.60Q264.24-31.12 270-31.12L270-31.12L270-31.12Q276.16-31.12 276.16-24.72L276.16-24.72L276.16-24.72Q276.16-22.08 274.40-19.12L274.40-19.12L274.40-19.12Q272.64-16.16 270.88-13.48L270.88-13.48L270.88-13.48Q269.12-10.80 269.12-8.72L269.12-8.72L267.20-8.72L267.20-8.72Q267.20-11.68 270.64-16.72L270.64-16.72L270.64-16.72Q274.08-21.76 274.08-24.52L274.08-24.52L274.08-24.52Q274.08-27.28 273-28.28L273-28.28L273-28.28Q271.92-29.28 269.80-29.28L269.80-29.28L269.80-29.28Q267.68-29.28 265.64-27.44L265.64-27.44L265.64-27.44Q263.60-25.60 262.24-22.80L262.24-22.80L262.24-22.80Q260.08-18.64 259.36-16L259.36-16L259.36-15.92L256.48 0L246.88 0L252.16-29.52L252.16-29.52Q249.76-29.28 248.16-27.28L248.16-27.28" fill="#dc0c58" stroke="none" stroke-width="none" transform="translate(-153.4000244140625,20.516199188232424)" style="fill: rgb(251, 250, 120);"></path></g><g class="path" style="transform: matrix(1, 0, 0, 1, 0, 14.925); opacity: 0.05; transform-origin: 142.56px -5.0438px; animation: 11.1111s linear 6.41667s 1 normal forwards running float-btt-in-559632af-4aac-4adc-a1d1-3edf0a1dd310;"><path d="M305.60 0.72L305.60 0.72L305.60 0.72Q298.56 0.72 297.92-5.28L297.92-5.28L297.92-5.28Q294.40 0.72 288.96 0.72L288.96 0.72L288.96 0.72Q283.52 0.72 280.64-2.36L280.64-2.36L280.64-2.36Q277.76-5.44 277.76-10.80L277.76-10.80L277.76-10.80Q277.76-20.24 282.24-25.68L282.24-25.68L282.24-25.68Q286.72-31.12 293.84-31.12L293.84-31.12L293.84-31.12Q297.92-31.12 300.16-28.64L300.16-28.64L300.16-28.64Q301.12-27.36 301.36-26.72L301.36-26.72L305.68-50.24L305.68-50.24Q303.28-50 301.68-48L301.68-48L300.48-48.96L300.48-48.96Q302.88-51.84 306.52-51.84L306.52-51.84L306.52-51.84Q310.16-51.84 312.16-50L312.16-50L312.16-50Q314.16-48.16 314.16-44.80L314.16-44.80L314.16-44.80Q314.16-44.16 314-42.72L314-42.72L314-42.72Q310.08-20.72 306.40-0.88L306.40-0.88L306.40-0.88Q308.80-1.12 310.40-3.12L310.40-3.12L311.60-2.16L311.60-2.16Q309.20 0.72 305.60 0.72zM286.80-7.52L286.80-7.52Q286.80-3.84 287.56-2.48L287.56-2.48L287.56-2.48Q288.32-1.12 289.96-1.12L289.96-1.12L289.96-1.12Q291.60-1.12 293.12-2.24L293.12-2.24L293.12-2.24Q294.64-3.36 295.68-5.12L295.68-5.12L295.68-5.12Q297.60-8.08 298.40-10.16L298.40-10.16L300.72-22.80L300.72-22.80Q300.56-25.36 299.04-27.48L299.04-27.48L299.04-27.48Q297.52-29.60 293.84-29.60L293.84-29.60L293.84-29.60Q291.28-29.60 289.04-22.08L289.04-22.08L289.04-22.08Q286.80-14.56 286.80-7.52L286.80-7.52" fill="#dc0c58" stroke="none" stroke-width="none" transform="translate(-153.4000244140625,20.516199188232424)" style="fill: rgb(25, 70, 69);"></path></g></g>
</g>
</g>
<style id="float-btt-in-559632af-4aac-4adc-a1d1-3edf0a1dd310" data-anikit="">@keyframes float-btt-in-559632af-4aac-4adc-a1d1-3edf0a1dd310
{
  0% {
    animation-timing-function: cubic-bezier(0.2242,0.7499,0.3142,0.8148);
    transform: translate(0px,14.925px) rotate(0deg) scale(1,1) skewX(0deg) skewY(0deg);
    opacity: 0.05;
  }
  100% {
    transform: translate(0px,0px) rotate(0deg) scale(1,1) skewX(0deg) skewY(0deg);
    opacity: 1;
  }
}</style></svg>