<?xml version="1.0" encoding="utf-8"?>
<svg xmlns="http://www.w3.org/2000/svg" style="margin: auto; background: none; display: block; shape-rendering: auto;" width="286" height="80" preserveAspectRatio="xMidYMid">
<style type="text/css">
  text {
    text-anchor: middle; font-size: 62px; opacity: 0;
  }
</style>
<g style="transform-origin: 143px 40px; transform: scale(0.775);">
<g transform="translate(143,40)">
  <g transform="translate(0,0)"><g class="path" style="transform: matrix(1, 0, 0, 1, 0, 31.84); opacity: 0.05; transform-origin: -131.215px 13.3716px; animation: 2.7027s linear 0s 1 normal forwards running float-btt-in-559632af-4aac-4adc-a1d1-3edf0a1dd310;"><path d="M22.48-3.36L22.48-3.36L22.48-3.36Q25.36-3.84 28.04-5.12L28.04-5.12L28.04-5.12Q30.72-6.40 32.88-8.40L32.88-8.40L32.88-8.40Q33.04-8.48 33.52-8.96L33.52-8.96L33.52-8.96Q34-9.44 34.16-9.28L34.16-9.28L34.16-9.28Q34.32-9.12 34.08-8.80L34.08-8.80L34.08-8.80Q33.84-8.48 33.68-8.24L33.68-8.24L33.68-8.24Q32.08-5.92 29.48-4.44L29.48-4.44L29.48-4.44Q26.88-2.96 24.08-2.08L24.08-2.08L24.08-2.08Q21.76-1.44 19.12-1.64L19.12-1.64L19.12-1.64Q16.48-1.84 14.16-2.96L14.16-2.96L14.16-2.96Q13.44-3.28 13.28-3.48L13.28-3.48L13.28-3.48Q13.12-3.68 13.28-3.76L13.28-3.76L13.28-3.76Q13.44-3.84 13.80-3.84L13.80-3.84L13.80-3.84Q14.16-3.84 14.48-3.76L14.48-3.76L14.48-3.76Q15.36-3.60 16.52-3.48L16.52-3.48L16.52-3.48Q17.68-3.36 18.84-3.32L18.84-3.32L18.84-3.32Q20-3.28 20.96-3.28L20.96-3.28L20.96-3.28Q21.92-3.28 22.48-3.36" fill="#d9ff9f" stroke="none" stroke-width="none" transform="translate(-154.92666625976562,18.827805291253167)" style="fill: rgb(217, 255, 159);"></path></g><g class="path" style="transform: matrix(1, 0, 0, 1, 0, 31.84); opacity: 0.05; transform-origin: -131.585px -9.26001px; animation: 2.7027s linear 0.0482104s 1 normal forwards running float-btt-in-559632af-4aac-4adc-a1d1-3edf0a1dd310;"><path d="M11.76-26.88L11.76-26.88L11.76-26.88Q11.36-24.08 11.36-21.40L11.36-21.40L11.36-21.40Q11.36-18.72 11.72-16.36L11.72-16.36L11.72-16.36Q12.08-14 12.84-12.16L12.84-12.16L12.84-12.16Q13.60-10.32 14.72-9.12L14.72-9.12L14.72-9.12Q16-7.84 17.88-7.16L17.88-7.16L17.88-7.16Q19.76-6.48 21.96-6.48L21.96-6.48L21.96-6.48Q24.16-6.48 26.60-7.12L26.60-7.12L26.60-7.12Q29.04-7.76 31.44-9.12L31.44-9.12L31.44-9.12Q31.92-9.44 32.08-9.28L32.08-9.28L32.08-9.28Q32.24-9.12 31.96-8.92L31.96-8.92L31.96-8.92Q31.68-8.72 31.44-8.56L31.44-8.56L31.44-8.56Q29.36-6.96 27.04-6L27.04-6L27.04-6Q24.72-5.04 22.36-4.80L22.36-4.80L22.36-4.80Q20-4.56 17.80-5.08L17.80-5.08L17.80-5.08Q15.60-5.60 13.84-7.04L13.84-7.04L13.84-7.04Q12.16-8.48 11.12-10.52L11.12-10.52L11.12-10.52Q10.08-12.56 9.56-15L9.56-15L9.56-15Q9.04-17.44 8.96-20.08L8.96-20.08L8.96-20.08Q8.88-22.72 9.12-25.28L9.12-25.28L9.12-25.28Q9.44-29.36 10.72-33.52L10.72-33.52L10.72-33.52Q12-37.68 14.12-41.20L14.12-41.20L14.12-41.20Q16.24-44.72 19.20-47.36L19.20-47.36L19.20-47.36Q22.16-50 25.84-51.04L25.84-51.04L25.84-51.04Q27.68-51.52 29.60-51.44L29.60-51.44L29.60-51.44Q31.52-51.36 33.16-50.72L33.16-50.72L33.16-50.72Q34.80-50.08 36-48.84L36-48.84L36-48.84Q37.20-47.60 37.60-45.84L37.60-45.84L37.60-45.84Q38-43.92 37.28-42.12L37.28-42.12L37.28-42.12Q36.56-40.32 35.28-39L35.28-39L35.28-39Q34-37.68 32.40-37.12L32.40-37.12L32.40-37.12Q30.80-36.56 29.36-37.12L29.36-37.12L29.36-37.12Q29.28-37.12 29.24-37.36L29.24-37.36L29.24-37.36Q29.20-37.60 29.52-37.52L29.52-37.52L29.52-37.52Q30.48-37.36 31.72-37.96L31.72-37.96L31.72-37.96Q32.96-38.56 33.96-39.60L33.96-39.60L33.96-39.60Q34.96-40.64 35.56-42.08L35.56-42.08L35.56-42.08Q36.16-43.52 35.92-45.04L35.92-45.04L35.92-45.04Q35.68-46.16 34.92-47L34.92-47L34.92-47Q34.16-47.84 32.96-48.36L32.96-48.36L32.96-48.36Q31.76-48.88 30.28-49.04L30.28-49.04L30.28-49.04Q28.80-49.20 27.20-48.88L27.20-48.88L27.20-48.88Q24.16-48.32 21.56-46.20L21.56-46.20L21.56-46.20Q18.96-44.08 16.96-41.04L16.96-41.04L16.96-41.04Q14.96-38 13.60-34.28L13.60-34.28L13.60-34.28Q12.24-30.56 11.76-26.88" fill="#d9ff9f" stroke="none" stroke-width="none" transform="translate(-154.92666625976562,18.827805291253167)" style="fill: rgb(199, 199, 199);"></path></g><g class="path" style="transform: matrix(1, 0, 0, 1, 0, 31.84); opacity: 0.05; transform-origin: -133.466px -10.3402px; animation: 2.7027s linear 0.0964207s 1 normal forwards running float-btt-in-559632af-4aac-4adc-a1d1-3edf0a1dd310;"><path d="M18.08-0.40L18.08-0.40L18.08-0.40Q18.96-0.32 19.88-0.32L19.88-0.32L19.88-0.32Q20.80-0.32 20.80-0.08L20.80-0.08L20.80-0.08Q20.80 0 20.48 0.04L20.48 0.04L20.48 0.04Q20.16 0.08 19.80 0.08L19.80 0.08L19.80 0.08Q19.44 0.08 19.04 0.08L19.04 0.08L19.04 0.08Q18.64 0.08 18.56 0.08L18.56 0.08L18.56 0.08Q16.08 0.08 13.68-0.64L13.68-0.64L13.68-0.64Q11.28-1.36 9.24-2.68L9.24-2.68L9.24-2.68Q7.20-4 5.60-5.92L5.60-5.92L5.60-5.92Q4-7.84 3.20-10.32L3.20-10.32L3.20-10.32Q1.60-15.20 1.36-19.84L1.36-19.84L1.36-19.84Q1.12-24.48 1.76-28.96L1.76-28.96L1.76-28.96Q2.08-31.52 3-34.76L3-34.76L3-34.76Q3.92-38 5.48-41.36L5.48-41.36L5.48-41.36Q7.04-44.72 9.40-48L9.40-48L9.40-48Q11.76-51.28 15.04-54L15.04-54L15.04-54Q18.48-56.88 22.68-57.84L22.68-57.84L22.68-57.84Q26.88-58.80 30.72-58.16L30.72-58.16L30.72-58.16Q34.56-57.52 37.52-55.48L37.52-55.48L37.52-55.48Q40.48-53.44 41.44-50.32L41.44-50.32L41.44-50.32Q41.52-50.16 41.60-49.64L41.60-49.64L41.60-49.64Q41.68-49.12 41.52-48.96L41.52-48.96L41.52-48.96Q41.44-48.88 41.28-49.36L41.28-49.36L41.28-49.36Q41.12-49.84 40.96-50L40.96-50L40.96-50Q37.60-54.56 33.36-55.80L33.36-55.80L33.36-55.80Q29.12-57.04 24.96-56.04L24.96-56.04L24.96-56.04Q20.80-55.04 17.12-52.36L17.12-52.36L17.12-52.36Q13.44-49.68 11.28-46.40L11.28-46.40L11.28-46.40Q7.52-40.72 5.56-34.32L5.56-34.32L5.56-34.32Q3.60-27.92 3.76-21.12L3.76-21.12L3.76-21.12Q3.84-18 4.44-14.56L4.44-14.56L4.44-14.56Q5.04-11.12 6.80-8L6.80-8L6.80-8Q8.56-4.80 11.64-2.68L11.64-2.68L11.64-2.68Q14.72-0.56 18.08-0.40" fill="#d9ff9f" stroke="none" stroke-width="none" transform="translate(-154.92666625976562,18.827805291253167)" style="fill: rgb(124, 177, 196);"></path></g><g class="path" style="transform: matrix(1, 0, 0, 1, 0, 31.84); opacity: 0.05; transform-origin: -131.329px -22.5544px; animation: 2.7027s linear 0.144631s 1 normal forwards running float-btt-in-559632af-4aac-4adc-a1d1-3edf0a1dd310;"><path d="M6.56-30.48L6.56-30.48L6.56-30.48Q7.20-34.72 8.60-38.72L8.60-38.72L8.60-38.72Q10-42.72 12.28-46.04L12.28-46.04L12.28-46.04Q14.56-49.36 17.92-51.76L17.92-51.76L17.92-51.76Q21.28-54.16 25.84-55.12L25.84-55.12L25.84-55.12Q27.44-55.44 29.44-55.40L29.44-55.40L29.44-55.40Q31.44-55.36 33.44-54.68L33.44-54.68L33.44-54.68Q35.44-54 37.16-52.64L37.16-52.64L37.16-52.64Q38.88-51.28 40-48.88L40-48.88L40-48.88Q41.04-46.56 40.72-44.32L40.72-44.32L40.72-44.32Q40.40-42.08 39.36-40.28L39.36-40.28L39.36-40.28Q38.32-38.48 36.80-37.28L36.80-37.28L36.80-37.28Q35.28-36.08 33.84-35.92L33.84-35.92L33.84-35.92Q32.96-35.76 32.88-35.96L32.88-35.96L32.88-35.96Q32.80-36.16 33.76-36.48L33.76-36.48L33.76-36.48Q35.28-36.96 36.84-38.92L36.84-38.92L36.84-38.92Q38.40-40.88 38.72-43.92L38.72-43.92L38.72-43.92Q38.88-45.44 38.32-46.92L38.32-46.92L38.32-46.92Q37.76-48.40 36.72-49.52L36.72-49.52L36.72-49.52Q35.68-50.64 34.24-51.44L34.24-51.44L34.24-51.44Q32.80-52.24 31.20-52.48L31.20-52.48L31.20-52.48Q27.76-52.96 24.88-52L24.88-52L24.88-52Q22-51.04 19.88-49.56L19.88-49.56L19.88-49.56Q17.76-48.08 16.44-46.64L16.44-46.64L16.44-46.64Q15.12-45.20 14.80-44.72L14.80-44.72L14.80-44.72Q12.32-41.60 10.48-37.96L10.48-37.96L10.48-37.96Q8.64-34.32 7.44-30.32L7.44-30.32L7.44-30.32Q7.44-30.24 7.32-29.76L7.32-29.76L7.32-29.76Q7.20-29.28 7.08-28.76L7.08-28.76L7.08-28.76Q6.96-28.24 6.80-27.80L6.80-27.80L6.80-27.80Q6.64-27.36 6.56-27.36L6.56-27.36L6.56-27.36Q6.40-27.36 6.40-27.84L6.40-27.84L6.40-27.84Q6.40-28.32 6.40-28.84L6.40-28.84L6.40-28.84Q6.40-29.36 6.48-29.84L6.48-29.84L6.48-29.84Q6.56-30.32 6.56-30.48" fill="#d9ff9f" stroke="none" stroke-width="none" transform="translate(-154.92666625976562,18.827805291253167)" style="fill: rgb(225, 225, 225);"></path></g><g class="path" style="transform: matrix(1, 0, 0, 1, 0, 31.84); opacity: 0.05; transform-origin: -92.8467px -13.3011px; animation: 2.7027s linear 0.192841s 1 normal forwards running float-btt-in-559632af-4aac-4adc-a1d1-3edf0a1dd310;"><path d="M68.72-18.56L68.72-18.56L68.72-18.56Q65.28-18.88 61.64-19.48L61.64-19.48L61.64-19.48Q58-20.08 54.80-20.96L54.80-20.96L54.80-20.96Q54.64-21.04 54.08-21.20L54.08-21.20L54.08-21.20Q53.52-21.36 53.52-21.52L53.52-21.52L53.52-21.52Q53.52-21.76 54.08-21.84L54.08-21.84L54.08-21.84Q54.64-21.92 54.80-21.92L54.80-21.92L54.80-21.92Q56.40-22.08 58.88-22.12L58.88-22.12L58.88-22.12Q61.36-22.16 62.96-21.92L62.96-21.92L62.96-21.92Q64.48-21.68 66.52-21.52L66.52-21.52L66.52-21.52Q68.56-21.36 70.64-21.44L70.64-21.44L70.64-21.44Q72.72-21.52 74.68-21.84L74.68-21.84L74.68-21.84Q76.64-22.16 78.08-22.80L78.08-22.80L78.08-22.80Q78.72-23.04 79.52-23.76L79.52-23.76L79.52-23.76Q80.32-24.48 80.72-25.20L80.72-25.20L80.72-25.20Q78.16-23.52 75.04-23.12L75.04-23.12L75.04-23.12Q71.92-22.72 68.52-22.96L68.52-22.96L68.52-22.96Q65.12-23.20 61.64-23.68L61.64-23.68L61.64-23.68Q58.16-24.16 54.80-24.32L54.80-24.32L54.80-24.32Q52.64-24.40 50.36-24.16L50.36-24.16L50.36-24.16Q48.08-23.92 45.96-23.20L45.96-23.20L45.96-23.20Q43.84-22.48 42.08-21.28L42.08-21.28L42.08-21.28Q40.32-20.08 39.20-18.32L39.20-18.32L39.20-18.32Q39.04-17.92 39.08-18.20L39.08-18.20L39.08-18.20Q39.12-18.48 39.12-18.64L39.12-18.64L39.12-18.64Q39.76-21.84 42.12-23.48L42.12-23.48L42.12-23.48Q44.48-25.12 47.28-26L47.28-26L47.28-26Q48.32-30.32 49.68-34.56L49.68-34.56L49.68-34.56Q51.04-38.80 52.20-42.80L52.20-42.80L52.20-42.80Q53.36-46.80 54.12-50.56L54.12-50.56L54.12-50.56Q54.88-54.32 54.80-57.84L54.80-57.84L54.80-57.84Q54.88-58 54.84-58.16L54.84-58.16L54.84-58.16Q54.80-58.32 54.96-58.32L54.96-58.32L54.96-58.32Q55.12-58.40 55.16-58.12L55.16-58.12L55.16-58.12Q55.20-57.84 55.20-57.76L55.20-57.76L55.20-57.76Q56.24-54.24 56-50.44L56-50.44L56-50.44Q55.76-46.64 54.84-42.72L54.84-42.72L54.84-42.72Q53.92-38.80 52.60-34.76L52.60-34.76L52.60-34.76Q51.28-30.72 50.16-26.64L50.16-26.64L52.24-26.88L52.24-26.88Q52.64-28.72 53.08-30.64L53.08-30.64L53.08-30.64Q53.52-32.56 54-34L54-34L54-34Q54.16-34.48 54.52-35.96L54.52-35.96L54.52-35.96Q54.88-37.44 55.28-39.52L55.28-39.52L55.28-39.52Q55.68-41.60 56.12-44L56.12-44L56.12-44Q56.56-46.40 56.84-48.64L56.84-48.64L56.84-48.64Q57.12-50.88 57.16-52.72L57.16-52.72L57.16-52.72Q57.20-54.56 56.96-55.60L56.96-55.60L56.96-55.60Q56.96-56.32 57.04-56.32L57.04-56.32L57.04-56.32Q57.20-56.32 57.36-56.12L57.36-56.12L57.36-56.12Q57.52-55.92 57.60-55.76L57.60-55.76L57.60-55.76Q58.48-54.40 58.92-52.48L58.92-52.48L58.92-52.48Q59.36-50.56 59.48-48.44L59.48-48.44L59.48-48.44Q59.60-46.32 59.40-44.24L59.40-44.24L59.40-44.24Q59.20-42.16 58.80-40.64L58.80-40.64L58.80-40.64Q57.84-37.28 56.72-33.76L56.72-33.76L56.72-33.76Q55.60-30.24 54.32-26.88L54.32-26.88L55.68-26.88L56.08-26.88L56.08-26.88Q56.40-28.24 56.88-29.60L56.88-29.60L56.88-29.60Q57.36-30.96 57.76-32.32L57.76-32.32L57.76-32.32Q58.80-36.08 59.84-40.04L59.84-40.04L59.84-40.04Q60.88-44 61.04-48.56L61.04-48.56L61.04-48.56Q61.04-48.96 61.12-48.96L61.12-48.96L61.12-48.96Q61.28-48.96 61.32-48.80L61.32-48.80L61.32-48.80Q61.36-48.64 61.44-48.48L61.44-48.48L61.44-48.48Q62.16-46.72 62.12-44L62.12-44L62.12-44Q62.08-41.28 61.60-38.28L61.60-38.28L61.60-38.28Q61.12-35.28 60.36-32.20L60.36-32.20L60.36-32.20Q59.60-29.12 58.96-26.64L58.96-26.64L58.96-26.64Q61.92-26.40 64.68-26L64.68-26L64.68-26Q67.44-25.60 70.24-25.28L70.24-25.28L70.24-25.28Q71.28-29.60 72.60-33.80L72.60-33.80L72.60-33.80Q73.92-38 75.08-41.96L75.08-41.96L75.08-41.96Q76.24-45.92 77-49.68L77-49.68L77-49.68Q77.76-53.44 77.68-56.88L77.68-56.88L77.68-56.88Q77.68-57.28 77.84-57.28L77.84-57.28L77.84-57.28Q78-57.28 78.08-57.12L78.08-57.12L78.08-57.12Q78.16-56.96 78.16-56.88L78.16-56.88L78.16-56.88Q79.20-53.28 78.92-49.40L78.92-49.40L78.92-49.40Q78.64-45.52 77.68-41.52L77.68-41.52L77.68-41.52Q76.72-37.52 75.36-33.40L75.36-33.40L75.36-33.40Q74-29.28 72.88-25.12L72.88-25.12L72.88-25.12Q73.36-24.96 73.88-25.04L73.88-25.04L73.88-25.04Q74.40-25.12 74.96-25.12L74.96-25.12L74.96-25.12Q75.28-27.12 75.84-29.24L75.84-29.24L75.84-29.24Q76.40-31.36 76.88-32.88L76.88-32.88L76.88-32.88Q77.04-33.36 77.40-34.84L77.40-34.84L77.40-34.84Q77.76-36.32 78.16-38.40L78.16-38.40L78.16-38.40Q78.56-40.48 79-42.88L79-42.88L79-42.88Q79.44-45.28 79.72-47.56L79.72-47.56L79.72-47.56Q80-49.84 80.04-51.68L80.04-51.68L80.04-51.68Q80.08-53.52 79.84-54.56L79.84-54.56L79.84-54.56Q79.68-55.12 79.92-55.20L79.92-55.20L79.92-55.20Q80.08-55.28 80.24-55.08L80.24-55.08L80.24-55.08Q80.40-54.88 80.48-54.72L80.48-54.72L80.48-54.72Q81.36-53.36 81.84-51.44L81.84-51.44L81.84-51.44Q82.32-49.52 82.44-47.44L82.44-47.44L82.44-47.44Q82.56-45.36 82.36-43.28L82.36-43.28L82.36-43.28Q82.16-41.20 81.76-39.68L81.76-39.68L81.76-39.68Q80.80-36.08 79.52-32.40L79.52-32.40L79.52-32.40Q78.24-28.72 76.88-25.12L76.88-25.12L78.88-25.44L78.88-25.44Q79.28-26.80 79.76-28.28L79.76-28.28L79.76-28.28Q80.24-29.76 80.64-31.20L80.64-31.20L80.64-31.20Q81.76-35.04 82.76-39L82.76-39L82.76-39Q83.76-42.96 83.92-47.44L83.92-47.44L83.92-47.44Q83.92-47.84 83.92-47.88L83.92-47.88L83.92-47.88Q83.92-47.92 84-47.92L84-47.92L84-47.92Q84.16-47.92 84.32-47.44L84.32-47.44L84.32-47.44Q85.28-45.28 85.04-41.84L85.04-41.84L85.04-41.84Q84.80-38.40 84.08-34.68L84.08-34.68L84.08-34.68Q83.36-30.96 82.40-27.48L82.40-27.48L82.40-27.48Q81.44-24 80.96-21.92L80.96-21.92L80.96-21.92Q80.08-18.08 78.72-14L78.72-14L78.72-14Q77.36-9.92 76.32-6.88L76.32-6.88L76.32-6.88Q76.08-5.92 75.68-5.92L75.68-5.92L75.68-5.92Q75.52-6 75.56-6.40L75.56-6.40L75.56-6.40Q75.60-6.80 75.60-7.20L75.60-7.20L75.60-7.20Q75.76-10.64 76.28-14.04L76.28-14.04L76.28-14.04Q76.80-17.44 77.68-21.04L77.68-21.04L77.68-21.04Q75.68-19.68 73.12-19.04L73.12-19.04L73.12-19.04Q70.56-18.40 68.72-18.56" fill="#d9ff9f" stroke="none" stroke-width="none" transform="translate(-154.92666625976562,18.827805291253167)" style="fill: rgb(243, 76, 131);"></path></g><g class="path" style="transform: matrix(1, 0, 0, 1, 0, 31.84); opacity: 0.05; transform-origin: -95.8467px 9.5238px; animation: 2.7027s linear 0.241052s 1 normal forwards running float-btt-in-559632af-4aac-4adc-a1d1-3edf0a1dd310;"><path d="M52.72-8.24L52.72-8.24L52.72-8.24Q52.88-12.08 53.44-15.76L53.44-15.76L53.44-15.76Q52.08-15.92 50.76-16.12L50.76-16.12L50.76-16.12Q49.44-16.32 48.16-16.56L48.16-16.56L48.16-16.56Q47.84-12.24 48.40-8.04L48.40-8.04L48.40-8.04Q48.96-3.84 50.80-0.32L50.80-0.32L50.80-0.32Q50.96 0 50.96 0L50.96 0L50.96 0Q50.96 0.40 50.48 0L50.48 0L50.48 0Q47.28-3.52 46.36-7.88L46.36-7.88L46.36-7.88Q45.44-12.24 45.76-16.88L45.76-16.88L44-17.20L44-17.20Q43.60-17.20 43.32-17.36L43.32-17.36L43.32-17.36Q43.04-17.52 43.04-17.68L43.04-17.68L43.04-17.68Q43.04-17.84 43.36-17.92L43.36-17.92L43.36-17.92Q43.68-18 43.92-18.08L43.92-18.08L43.92-18.08Q48.48-19.04 53.04-18.80L53.04-18.80L53.04-18.80Q57.60-18.56 62.32-18L62.32-18L62.32-18Q65.28-17.68 68.32-17.44L68.32-17.44L68.32-17.44Q71.36-17.20 74.72-18L74.72-18L74.72-18Q75.04-18.08 75.12-17.92L75.12-17.92L75.12-17.92Q75.12-17.84 74.80-17.52L74.80-17.52L74.80-17.52Q73.44-16.24 71.12-15.76L71.12-15.76L71.12-15.76Q70.72-11.44 71.20-7.24L71.20-7.24L71.20-7.24Q71.68-3.04 73.60 0L73.60 0L73.60 0Q73.84 0.24 73.60 0.24L73.60 0.24L73.60 0.24Q73.52 0.24 73.44 0.16L73.44 0.16L73.44 0.16Q73.36 0.08 73.20 0L73.20 0L73.20 0Q71.68-1.28 70.76-3L70.76-3L70.76-3Q69.84-4.72 69.36-6.72L69.36-6.72L69.36-6.72Q68.88-8.72 68.76-10.92L68.76-10.92L68.76-10.92Q68.64-13.12 68.72-15.36L68.72-15.36L68.72-15.36Q67.04-15.20 65.28-15.20L65.28-15.20L65.28-15.20Q63.52-15.20 61.84-15.28L61.84-15.28L61.84-15.28Q60.16-15.36 58.64-15.48L58.64-15.48L58.64-15.48Q57.12-15.60 56-15.68L56-15.68L56-15.68Q55.36-13.52 54.64-11.56L54.64-11.56L54.64-11.56Q53.92-9.60 53.44-8L53.44-8L53.44-8Q53.28-7.60 53.12-7.24L53.12-7.24L53.12-7.24Q52.96-6.88 52.80-7.04L52.80-7.04L52.80-7.04Q52.64-7.04 52.68-7.44L52.68-7.44L52.68-7.44Q52.72-7.84 52.72-8.24" fill="#d9ff9f" stroke="none" stroke-width="none" transform="translate(-154.92666625976562,18.827805291253167)" style="fill: rgb(233, 233, 233);"></path></g><g class="path" style="transform: matrix(1, 0, 0, 1, 0, 31.84); opacity: 0.05; transform-origin: -80.4733px 12.7845px; animation: 2.7027s linear 0.289262s 1 normal forwards running float-btt-in-559632af-4aac-4adc-a1d1-3edf0a1dd310;"><path d="M74.56-4.64L74.56-4.64L74.56-4.64Q74.96-3.12 75.28-1.92L75.28-1.92L75.28-1.92Q75.60-0.72 76.16 0L76.16 0L76.16 0Q76.24 0.08 76.32 0.20L76.32 0.20L76.32 0.20Q76.40 0.32 76.24 0.40L76.24 0.40L76.24 0.40Q75.92 0.40 75.36 0L75.36 0L75.36 0Q74.48-0.64 73.80-1.44L73.80-1.44L73.80-1.44Q73.12-2.24 72.72-4.64L72.72-4.64L72.72-4.64Q72.56-5.60 72.56-6.96L72.56-6.96L72.56-6.96Q72.56-8.32 72.64-9.56L72.64-9.56L72.64-9.56Q72.72-10.80 72.92-11.68L72.92-11.68L72.92-11.68Q73.12-12.56 73.36-12.48L73.36-12.48L73.36-12.48Q73.52-12.48 73.60-12.08L73.60-12.08L73.60-12.08Q73.68-11.68 73.76-11.20L73.76-11.20L73.76-11.20Q73.84-10.72 73.88-10.24L73.88-10.24L73.88-10.24Q73.92-9.76 73.92-9.52L73.92-9.52L73.92-9.52Q74.08-8.16 74.20-6.96L74.20-6.96L74.20-6.96Q74.32-5.76 74.56-4.64" fill="#d9ff9f" stroke="none" stroke-width="none" transform="translate(-154.92666625976562,18.827805291253167)" style="fill: rgb(217, 255, 159);"></path></g><g class="path" style="transform: matrix(1, 0, 0, 1, 0, 31.84); opacity: 0.05; transform-origin: -103.42px 12.1478px; animation: 2.7027s linear 0.337473s 1 normal forwards running float-btt-in-559632af-4aac-4adc-a1d1-3edf0a1dd310;"><path d="M51.68-5.68L51.68-5.68L51.68-5.68Q52.16-2.80 53.20-0.32L53.20-0.32L53.20-0.32Q53.36 0.24 53.28 0.24L53.28 0.24L53.28 0.24Q52.88 0.24 52.40-0.24L52.40-0.24L52.40-0.24Q51.36-1.44 50.84-2.40L50.84-2.40L50.84-2.40Q50.32-3.36 49.92-5.68L49.92-5.68L49.92-5.68Q49.76-6.56 49.72-7.92L49.72-7.92L49.72-7.92Q49.68-9.28 49.76-10.56L49.76-10.56L49.76-10.56Q49.84-11.84 50.04-12.72L50.04-12.72L50.04-12.72Q50.24-13.60 50.48-13.60L50.48-13.60L50.48-13.60Q50.56-13.60 50.68-13.20L50.68-13.20L50.68-13.20Q50.80-12.80 50.88-12.28L50.88-12.28L50.88-12.28Q50.96-11.76 51.04-11.24L51.04-11.24L51.04-11.24Q51.12-10.72 51.12-10.56L51.12-10.56L51.12-10.56Q51.28-9.20 51.40-8L51.40-8L51.40-8Q51.52-6.80 51.68-5.68" fill="#d9ff9f" stroke="none" stroke-width="none" transform="translate(-154.92666625976562,18.827805291253167)" style="fill: rgb(199, 199, 199);"></path></g><g class="path" style="transform: matrix(1, 0, 0, 1, 0, 31.84); opacity: 0.05; transform-origin: -111.567px -0.0943384px; animation: 2.7027s linear 0.385683s 1 normal forwards running float-btt-in-559632af-4aac-4adc-a1d1-3edf0a1dd310;"><path d="M41.92-18.56L41.92-18.56L41.92-18.56Q40.88-18 40.48-17.60L40.48-17.60L40.48-17.60Q40.08-17.20 39.52-16.56L39.52-16.56L39.52-16.56Q39.20-16.16 39.20-16.32L39.20-16.32L39.20-16.32Q39.20-16.48 39.20-16.72L39.20-16.72L39.20-16.72Q39.52-17.92 40-18.64L40-18.64L40-18.64Q40.48-19.36 41.60-20.24L41.60-20.24L41.60-20.24Q42.16-20.72 43.16-21.04L43.16-21.04L43.16-21.04Q44.16-21.36 45.12-21.48L45.12-21.48L45.12-21.48Q46.08-21.60 46.80-21.56L46.80-21.56L46.80-21.56Q47.52-21.52 47.52-21.28L47.52-21.28L47.52-21.28Q47.52-21.04 46.60-20.64L46.60-20.64L46.60-20.64Q45.68-20.24 45.44-20.08L45.44-20.08L45.44-20.08Q44.48-19.68 43.60-19.32L43.60-19.32L43.60-19.32Q42.72-18.96 41.92-18.56" fill="#d9ff9f" stroke="none" stroke-width="none" transform="translate(-154.92666625976562,18.827805291253167)" style="fill: rgb(124, 177, 196);"></path></g><g class="path" style="transform: matrix(1, 0, 0, 1, 0, 31.84); opacity: 0.05; transform-origin: -36.9335px -20.2442px; animation: 2.7027s linear 0.433893s 1 normal forwards running float-btt-in-559632af-4aac-4adc-a1d1-3edf0a1dd310;"><path d="M112.64-57.28L112.64-57.28L112.64-57.28Q112.48-57.52 112.20-58.04L112.20-58.04L112.20-58.04Q111.92-58.56 112.08-58.72L112.08-58.72L112.08-58.72Q112.24-58.88 112.60-58.64L112.60-58.64L112.60-58.64Q112.96-58.40 113.04-58.32L113.04-58.32L113.04-58.32Q114.48-57.28 115.72-55.44L115.72-55.44L115.72-55.44Q116.96-53.60 117.96-51.40L117.96-51.40L117.96-51.40Q118.96-49.20 119.76-46.80L119.76-46.80L119.76-46.80Q120.56-44.40 121.04-42.24L121.04-42.24L121.04-42.24Q122.24-36.96 123.08-31.84L123.08-31.84L123.08-31.84Q123.92-26.72 123.92-21.28L123.92-21.28L123.92-21.28Q123.92-21.12 123.96-20.32L123.96-20.32L123.96-20.32Q124-19.52 123.68-19.36L123.68-19.36L123.68-19.36Q123.44-19.52 123.16-20.16L123.16-20.16L123.16-20.16Q122.88-20.80 122.80-21.04L122.80-21.04L122.80-21.04Q121.84-24 121.08-27.80L121.08-27.80L121.08-27.80Q120.32-31.60 119.68-34.72L119.68-34.72L119.68-34.72Q119.20-37.12 118.80-39.32L118.80-39.32L118.80-39.32Q118.40-41.52 117.88-43.60L117.88-43.60L117.88-43.60Q117.36-45.68 116.68-47.80L116.68-47.80L116.68-47.80Q116-49.92 115.04-52.24L115.04-52.24L115.04-52.24Q114.88-52.56 114.52-53.36L114.52-53.36L114.52-53.36Q114.16-54.16 113.76-54.96L113.76-54.96L113.76-54.96Q113.36-55.76 113.04-56.44L113.04-56.44L113.04-56.44Q112.72-57.12 112.64-57.28" fill="#d9ff9f" stroke="none" stroke-width="none" transform="translate(-154.92666625976562,18.827805291253167)" style="fill: rgb(225, 225, 225);"></path></g><g class="path" style="transform: matrix(1, 0, 0, 1, 0, 31.84); opacity: 0.05; transform-origin: -45.3728px -9.73835px; animation: 2.7027s linear 0.482104s 1 normal forwards running float-btt-in-559632af-4aac-4adc-a1d1-3edf0a1dd310;"><path d="M131.84 2L131.84 2L131.84 2Q130.96 1.52 130.64 1.40L130.64 1.40L130.64 1.40Q130.32 1.28 129.44 0.72L129.44 0.72L129.44 0.72Q127.52-0.40 125.92-2.20L125.92-2.20L125.92-2.20Q124.32-4 123.04-6.16L123.04-6.16L123.04-6.16Q121.76-8.32 120.76-10.76L120.76-10.76L120.76-10.76Q119.76-13.20 119.04-15.60L119.04-15.60L119.04-15.60Q117.44-14.56 115.24-14.36L115.24-14.36L115.24-14.36Q113.04-14.16 111.20-14.16L111.20-14.16L111.20-14.16Q108.88-14.16 106.60-14.32L106.60-14.32L106.60-14.32Q104.32-14.48 102-14.48L102-14.48L102-14.48Q99.76-10.32 97.80-6.44L97.80-6.44L97.80-6.44Q95.84-2.56 94.72 0.80L94.72 0.80L94.72 0.80Q94.72 0.88 94.64 1.16L94.64 1.16L94.64 1.16Q94.56 1.44 94.40 1.44L94.40 1.44L94.40 1.44Q94.16 1.44 94.16 0.88L94.16 0.88L94.16 0.88Q94.16 0.32 94.16 0.16L94.16 0.16L94.16 0.16Q94.16-3.04 95.72-7L95.72-7L95.72-7Q97.28-10.96 99.20-14.80L99.20-14.80L98-14.88L98-14.88Q97.52-13.76 96.68-11.76L96.68-11.76L96.68-11.76Q95.84-9.76 95.08-7.60L95.08-7.60L95.08-7.60Q94.32-5.44 93.72-3.44L93.72-3.44L93.72-3.44Q93.12-1.44 93.12-0.24L93.12-0.24L93.12-0.24Q93.12 0 92.88 0L92.88 0L92.88 0Q92.56 0 92.40-0.52L92.40-0.52L92.40-0.52Q92.24-1.04 92.12-1.68L92.12-1.68L92.12-1.68Q92-2.32 91.96-3L91.96-3L91.96-3Q91.92-3.68 91.92-3.92L91.92-3.92L91.92-3.92Q91.92-6.72 92.64-9.80L92.64-9.80L92.64-9.80Q93.36-12.88 94.56-15.44L94.56-15.44L93.52-15.60L93.52-15.60Q92.80-13.84 92.16-12.12L92.16-12.12L92.16-12.12Q91.52-10.40 91.04-8.56L91.04-8.56L91.04-8.56Q91.04-8.40 90.96-8.16L90.96-8.16L90.96-8.16Q90.88-7.92 90.72-8L90.72-8L90.72-8Q90.56-8.32 90.52-8.76L90.52-8.76L90.52-8.76Q90.48-9.20 90.48-9.52L90.48-9.52L90.48-9.52Q90.48-12.88 91.68-16L91.68-16L91.68-16Q92.08-16.80 92.48-16.80L92.48-16.80L92.48-16.80Q94.16-17.28 95.88-17.36L95.88-17.36L95.88-17.36Q97.60-17.44 99.44-17.44L99.44-17.44L99.44-17.44Q103.44-17.44 107.36-16.84L107.36-16.84L107.36-16.84Q111.28-16.24 115.20-16.24L115.20-16.24L115.20-16.24Q117.12-16.24 118.72-16.56L118.72-16.56L118.56-17.84L118.56-17.84Q117.68-17.60 116.68-17.52L116.68-17.52L116.68-17.52Q115.68-17.44 114.80-17.44L114.80-17.44L114.80-17.44Q111.68-17.44 108.36-18.08L108.36-18.08L108.36-18.08Q105.04-18.72 102-19.60L102-19.60L102-19.60Q101.84-19.76 101.36-19.88L101.36-19.88L101.36-19.88Q100.88-20 100.88-20.24L100.88-20.24L100.88-20.24Q100.88-20.40 101.36-20.52L101.36-20.52L101.36-20.52Q101.84-20.64 102-20.64L102-20.64L102-20.64Q103.12-20.72 104.20-20.76L104.20-20.76L104.20-20.76Q105.28-20.80 106.40-20.80L106.40-20.80L106.40-20.80Q108.24-20.80 110.08-20.76L110.08-20.76L110.08-20.76Q111.92-20.72 113.84-20.72L113.84-20.72L113.84-20.72Q114.80-20.72 115.84-20.72L115.84-20.72L115.84-20.72Q116.88-20.72 117.84-20.80L117.84-20.80L117.68-21.68L116.64-21.68L116.64-21.68Q112.80-21.68 109-22.40L109-22.40L109-22.40Q105.20-23.12 101.36-23.12L101.36-23.12L101.36-23.12Q98.08-23.12 95.56-22.32L95.56-22.32L95.56-22.32Q93.04-21.52 91.24-20.48L91.24-20.48L91.24-20.48Q89.44-19.44 88.32-18.40L88.32-18.40L88.32-18.40Q87.20-17.36 86.72-16.88L86.72-16.88L86.72-16.88Q86.56-16.80 86.56-16.80L86.56-16.80L86.56-16.80Q86.48-16.80 86.48-16.96L86.48-16.96L86.48-16.96Q86.48-17.04 86.56-17.12L86.56-17.12L86.56-17.12Q88-19.92 90.08-21.80L90.08-21.80L90.08-21.80Q92.16-23.68 95.20-24.64L95.20-24.64L95.20-24.64Q98.24-31.12 101.48-37.52L101.48-37.52L101.48-37.52Q104.72-43.92 108.32-50.16L108.32-50.16L108.32-50.16Q108.40-50.32 108.64-50.68L108.64-50.68L108.64-50.68Q108.88-51.04 109.12-51.04L109.12-51.04L109.12-51.04Q109.20-50.96 109.20-50.88L109.20-50.88L109.20-50.72L109.20-50.72Q109.20-50.08 109.12-49.76L109.12-49.76L109.12-49.76Q107.60-43.28 104.64-37.28L104.64-37.28L104.64-37.28Q101.68-31.28 98.56-25.44L98.56-25.44L100.08-25.52L100.08-25.52Q100.32-26 101.32-27.60L101.32-27.60L101.32-27.60Q102.32-29.20 103.48-30.92L103.48-30.92L103.48-30.92Q104.64-32.64 105.60-34.04L105.60-34.04L105.60-34.04Q106.56-35.44 106.80-35.44L106.80-35.44L106.88-35.20L106.88-35.20Q106.88-34.80 106.40-33.44L106.40-33.44L106.40-33.44Q105.92-32.08 105.28-30.48L105.28-30.48L105.28-30.48Q104.64-28.88 104.04-27.48L104.04-27.48L104.04-27.48Q103.44-26.08 103.20-25.52L103.20-25.52L103.20-25.52Q103.68-25.52 104.16-25.48L104.16-25.48L104.16-25.48Q104.64-25.44 105.12-25.44L105.12-25.44L105.12-25.44Q106.56-28.32 108.20-31.48L108.20-31.48L108.20-31.48Q109.84-34.64 111.04-37.92L111.04-37.92L111.04-37.92Q112.24-41.20 112.68-44.56L112.68-44.56L112.68-44.56Q113.12-47.92 112.16-51.20L112.16-51.20L112.16-51.20Q112.16-50.80 111.96-49.60L111.96-49.60L111.96-49.60Q111.76-48.40 111.44-47.08L111.44-47.08L111.44-47.08Q111.12-45.76 110.80-44.76L110.80-44.76L110.80-44.76Q110.48-43.76 110.16-43.76L110.16-43.76L110.16-43.76Q109.92-43.76 109.96-44.08L109.96-44.08L109.96-44.08Q110-44.40 110-44.48L110-44.48L110-44.48Q110-46.56 110.28-48.60L110.28-48.60L110.28-48.60Q110.56-50.64 110.56-52.72L110.56-52.72L110.56-52.72Q110.56-55.52 109.68-58.16L109.68-58.16L109.68-58.16Q109.68-58.24 109.44-58.84L109.44-58.84L109.44-58.84Q109.20-59.44 109.60-59.44L109.60-59.44L109.60-59.44Q109.76-59.44 110.16-59.04L110.16-59.04L110.16-59.04Q110.96-58.24 111.72-56.88L111.72-56.88L111.72-56.88Q112.48-55.52 113.12-53.96L113.12-53.96L113.12-53.96Q113.76-52.40 114.32-50.88L114.32-50.88L114.32-50.88Q114.88-49.36 115.20-48.32L115.20-48.32L115.20-48.32Q116.24-44.88 116.92-41.40L116.92-41.40L116.92-41.40Q117.60-37.92 118.12-34.44L118.12-34.44L118.12-34.44Q118.64-30.96 119.20-27.44L119.20-27.44L119.20-27.44Q119.76-23.92 120.48-20.48L120.48-20.48L120.48-20.48Q121.20-17.12 122.20-13.92L122.20-13.92L122.20-13.92Q123.20-10.72 124.64-7.84L124.64-7.84L124.64-7.84Q126.08-4.96 127.96-2.52L127.96-2.52L127.96-2.52Q129.84-0.08 132.32 1.76L132.32 1.76L132.32 1.76Q132.72 2.16 132.60 2.28L132.60 2.28L132.60 2.28Q132.48 2.40 131.84 2zM107.92-25.12L107.92-25.12L107.92-25.12Q110.24-24.88 112.52-24.56L112.52-24.56L112.52-24.56Q114.80-24.24 117.12-24.08L117.12-24.08L117.12-24.08Q116.24-28.32 115.60-32.48L115.60-32.48L115.60-32.48Q114.96-36.64 114.40-40.96L114.40-40.96L114.40-40.96Q113.36-36.80 111.56-32.88L111.56-32.88L111.56-32.88Q109.76-28.96 107.92-25.12" fill="#d9ff9f" stroke="none" stroke-width="none" transform="translate(-154.92666625976562,18.827805291253167)" style="fill: rgb(243, 76, 131);"></path></g><g class="path" style="transform: matrix(1, 0, 0, 1, 0, 31.84); opacity: 0.05; transform-origin: -29.5133px -9.75066px; animation: 2.7027s linear 0.530314s 1 normal forwards running float-btt-in-559632af-4aac-4adc-a1d1-3edf0a1dd310;"><path d="M131.44-5.76L131.68-4.80L131.68-4.80Q131.76-4.32 131.60-4.36L131.60-4.36L131.60-4.36Q131.44-4.40 131.24-4.64L131.24-4.64L131.24-4.64Q131.04-4.88 130.84-5.20L130.84-5.20L130.84-5.20Q130.64-5.52 130.64-5.60L130.64-5.60L130.64-5.60Q128.72-9.12 127.60-12.76L127.60-12.76L127.60-12.76Q126.48-16.40 125.84-20.12L125.84-20.12L125.84-20.12Q125.20-23.84 124.76-27.64L124.76-27.64L124.76-27.64Q124.32-31.44 123.72-35.40L123.72-35.40L123.72-35.40Q123.12-39.36 122.16-43.44L122.16-43.44L122.16-43.44Q121.20-47.52 119.44-51.76L119.44-51.76L119.44-51.76Q119.36-51.92 119.20-52.32L119.20-52.32L119.20-52.32Q119.04-52.72 119.20-52.80L119.20-52.80L119.20-52.80Q119.36-52.80 119.60-52.56L119.60-52.56L119.92-52.24L119.92-52.24Q121.68-50.16 123.04-46.72L123.04-46.72L123.04-46.72Q124.40-43.28 125.44-39.36L125.44-39.36L125.44-39.36Q126.48-35.44 127.16-31.60L127.16-31.60L127.16-31.60Q127.84-27.76 128.24-24.88L128.24-24.88L128.24-24.88Q128.88-20.32 129.60-15.28L129.60-15.28L129.60-15.28Q130.32-10.24 131.44-5.76L131.44-5.76" fill="#d9ff9f" stroke="none" stroke-width="none" transform="translate(-154.92666625976562,18.827805291253167)" style="fill: rgb(233, 233, 233);"></path></g><g class="path" style="transform: matrix(1, 0, 0, 1, 0, 31.84); opacity: 0.05; transform-origin: -24.6197px 13.6678px; animation: 2.7027s linear 0.578524s 1 normal forwards running float-btt-in-559632af-4aac-4adc-a1d1-3edf0a1dd310;"><path d="M134.24 1.12L134.24 1.12L134.24 1.12Q132.64 0.40 131.44-0.28L131.44-0.28L131.44-0.28Q130.24-0.96 129.36-2.16L129.36-2.16L129.36-2.16Q128-4 127.24-5.84L127.24-5.84L127.24-5.84Q126.48-7.68 126-9.28L126-9.28L126-9.28Q125.84-9.92 125.72-10.72L125.72-10.72L125.72-10.72Q125.60-11.52 125.76-11.52L125.76-11.52L125.76-11.52Q126.08-11.52 126.56-10.48L126.56-10.48L126.56-10.48Q127.04-9.44 127.44-8.72L127.44-8.72L127.44-8.72Q128.64-6.24 130.48-3.72L130.48-3.72L130.48-3.72Q132.32-1.20 134.48 0.40L134.48 0.40L134.48 0.40Q135.12 0.96 134.88 1.12L134.88 1.12L134.88 1.12Q134.64 1.28 134.24 1.12" fill="#d9ff9f" stroke="none" stroke-width="none" transform="translate(-154.92666625976562,18.827805291253167)" style="fill: rgb(217, 255, 159);"></path></g><g class="path" style="transform: matrix(1, 0, 0, 1, 0, 31.84); opacity: 0.05; transform-origin: -63.8467px 1.6278px; animation: 2.7027s linear 0.626735s 1 normal forwards running float-btt-in-559632af-4aac-4adc-a1d1-3edf0a1dd310;"><path d="M86.96-14.24L86.96-14.24L86.96-14.24Q86.96-14.24 86.80-14.24L86.80-14.24L86.72-14.24L86.72-14.24Q86.72-14.48 86.80-14.72L86.80-14.72L86.80-14.72Q86.88-14.96 86.96-15.20L86.96-15.20L86.96-15.20Q87.60-16.56 88.20-17.24L88.20-17.24L88.20-17.24Q88.80-17.92 90.16-18.72L90.16-18.72L90.16-18.72Q90.96-19.20 92.40-19.68L92.40-19.68L92.40-19.68Q93.84-20.16 94.72-20.16L94.72-20.16L94.72-20.16Q94.88-20.16 95.16-20.12L95.16-20.12L95.16-20.12Q95.44-20.08 95.44-19.84L95.44-19.84L95.44-19.84Q95.44-19.60 94.60-19.20L94.60-19.20L94.60-19.20Q93.76-18.80 93.52-18.64L93.52-18.64L93.52-18.64Q90.48-16.80 89.04-15.84L89.04-15.84L89.04-15.84Q87.60-14.88 86.96-14.24" fill="#d9ff9f" stroke="none" stroke-width="none" transform="translate(-154.92666625976562,18.827805291253167)" style="fill: rgb(199, 199, 199);"></path></g><g class="path" style="transform: matrix(1, 0, 0, 1, 0, 31.84); opacity: 0.05; transform-origin: -4.32667px -9.5722px; animation: 2.7027s linear 0.674945s 1 normal forwards running float-btt-in-559632af-4aac-4adc-a1d1-3edf0a1dd310;"><path d="M151.76-40.64L151.76-40.64L151.76-40.64Q150.64-36.32 149-31.68L149-31.68L149-31.68Q147.36-27.04 145.60-22.88L145.60-22.88L145.60-22.88Q145.52-22.72 145.20-22.12L145.20-22.12L145.20-22.12Q144.88-21.52 144.72-21.60L144.72-21.60L144.72-21.60Q144.48-21.60 144.52-22.28L144.52-22.28L144.52-22.28Q144.56-22.96 144.64-23.20L144.64-23.20L144.64-23.20Q144.72-24.16 144.96-25.60L144.96-25.60L144.96-25.60Q145.20-27.04 145.48-28.56L145.48-28.56L145.48-28.56Q145.76-30.08 146.12-31.52L146.12-31.52L146.12-31.52Q146.48-32.96 146.80-34L146.80-34L146.80-34Q146.96-34.32 147.28-35.60L147.28-35.60L147.28-35.60Q147.60-36.88 147.96-38.68L147.96-38.68L147.96-38.68Q148.32-40.48 148.72-42.64L148.72-42.64L148.72-42.64Q149.12-44.80 149.44-46.88L149.44-46.88L148.48-47.12L148.48-47.12Q148.08-44.32 147.32-41.40L147.32-41.40L147.32-41.40Q146.56-38.48 145.64-35.56L145.64-35.56L145.64-35.56Q144.72-32.64 143.84-29.64L143.84-29.64L143.84-29.64Q142.96-26.64 142.24-23.68L142.24-23.68L142.24-23.68Q141.60-20.88 141.28-17.84L141.28-17.84L141.28-17.84Q140.96-14.80 141.04-11.72L141.04-11.72L141.04-11.72Q141.12-8.64 141.76-5.72L141.76-5.72L141.76-5.72Q142.40-2.80 143.68-0.32L143.68-0.32L143.68-0.32Q143.92 0.24 143.84 0.24L143.84 0.24L143.84 0.24Q143.68 0.24 143.60 0.16L143.60 0.16L143.44 0L143.44 0Q141.20-2.64 140.12-5.72L140.12-5.72L140.12-5.72Q139.04-8.80 138.76-12.08L138.76-12.08L138.76-12.08Q138.48-15.36 138.88-18.72L138.88-18.72L138.88-18.72Q139.28-22.08 140-25.28L140-25.28L140-25.28Q141.36-31.20 143.20-36.68L143.20-36.68L143.20-36.68Q145.04-42.16 146.32-47.44L146.32-47.44L146.32-47.44Q141.52-48.24 137.32-48.92L137.32-48.92L137.32-48.92Q133.12-49.60 129.52-48.88L129.52-48.88L129.52-48.88Q129.28-48.88 129.28-48.96L129.28-48.96L129.28-48.96Q129.28-49.12 129.40-49.16L129.40-49.16L129.40-49.16Q129.52-49.20 129.60-49.28L129.60-49.28L129.60-49.28Q132.32-50.88 135.40-51.04L135.40-51.04L135.40-51.04Q138.48-51.20 141.80-50.76L141.80-50.76L141.80-50.76Q145.12-50.32 148.60-49.64L148.60-49.64L148.60-49.64Q152.08-48.96 155.60-48.88L155.60-48.88L155.60-48.88Q157.76-48.80 160.12-49.24L160.12-49.24L160.12-49.24Q162.48-49.68 164.68-50.60L164.68-50.60L164.68-50.60Q166.88-51.52 168.68-53.04L168.68-53.04L168.68-53.04Q170.48-54.56 171.60-56.64L171.60-56.64L171.60-56.64Q171.76-57.04 171.92-57.04L171.92-57.04L171.92-56.80L171.92-56.64L171.92-56.64Q171.04-53.60 169.20-51.64L169.20-51.64L169.20-51.64Q167.36-49.68 165-48.48L165-48.48L165-48.48Q162.64-47.28 159.96-46.84L159.96-46.84L159.96-46.84Q157.28-46.40 154.72-46.48L154.72-46.48L154.72-46.48Q155.12-44 154.76-40.72L154.76-40.72L154.76-40.72Q154.40-37.44 153.68-34.08L153.68-34.08L153.68-34.08Q152.96-30.72 152.16-27.72L152.16-27.72L152.16-27.72Q151.36-24.72 150.88-22.88L150.88-22.88L150.88-22.88Q149.92-19.04 148.64-15.04L148.64-15.04L148.64-15.04Q147.36-11.04 146.32-8L146.32-8L146.32-8Q146.16-7.60 145.96-7.28L145.96-7.28L145.96-7.28Q145.76-6.96 145.60-7.04L145.60-7.04L145.60-7.04Q145.44-7.12 145.48-7.48L145.48-7.48L145.48-7.48Q145.52-7.84 145.52-8.24L145.52-8.24L145.52-8.24Q145.76-14.24 147.28-20.24L147.28-20.24L147.28-20.24Q148.80-26.24 150.56-32.32L150.56-32.32L150.56-32.32Q151.52-35.68 152.44-39.12L152.44-39.12L152.44-39.12Q153.36-42.56 153.76-46.48L153.76-46.48L153.76-46.48Q153.36-46.56 153.08-46.56L153.08-46.56L153.08-46.56Q152.80-46.56 152.40-46.56L152.40-46.56L152.40-46.56Q152.40-44.96 152.28-43.44L152.28-43.44L152.28-43.44Q152.16-41.92 151.76-40.64" fill="#d9ff9f" stroke="none" stroke-width="none" transform="translate(-154.92666625976562,18.827805291253167)" style="fill: rgb(124, 177, 196);"></path></g><g class="path" style="transform: matrix(1, 0, 0, 1, 0, 31.84); opacity: 0.05; transform-origin: -3.88667px -37.7469px; animation: 2.7027s linear 0.723156s 1 normal forwards running float-btt-in-559632af-4aac-4adc-a1d1-3edf0a1dd310;"><path d="M153.92-57.68L153.92-57.68L153.92-57.68Q157.04-57.28 160.24-57.04L160.24-57.04L160.24-57.04Q163.44-56.80 165.76-56.80L165.76-56.80L165.76-56.80Q166.56-56.80 166.56-56.56L166.56-56.56L166.56-56.56Q166.56-56.24 165.76-56L165.76-56L165.76-56Q161.68-54.40 157.16-54.56L157.16-54.56L157.16-54.56Q152.64-54.72 148-55.44L148-55.44L148-55.44Q145.20-55.84 142.24-56.24L142.24-56.24L142.24-56.24Q139.28-56.64 135.84-56.24L135.84-56.24L135.84-56.24Q135.52-56.16 135.52-56.32L135.52-56.32L135.52-56.32Q135.52-56.48 135.68-56.56L135.68-56.56L135.68-56.56Q135.84-56.64 136-56.80L136-56.80L136-56.80Q137.52-57.92 139.92-58.28L139.92-58.28L139.92-58.28Q142.32-58.64 144.92-58.60L144.92-58.60L144.92-58.60Q147.52-58.56 149.92-58.24L149.92-58.24L149.92-58.24Q152.32-57.92 153.92-57.68" fill="#d9ff9f" stroke="none" stroke-width="none" transform="translate(-154.92666625976562,18.827805291253167)" style="fill: rgb(225, 225, 225);"></path></g><g class="path" style="transform: matrix(1, 0, 0, 1, 0, 31.84); opacity: 0.05; transform-origin: -11.2467px -34.3855px; animation: 2.7027s linear 0.771366s 1 normal forwards running float-btt-in-559632af-4aac-4adc-a1d1-3edf0a1dd310;"><path d="M141.92-55.20L141.92-55.20L141.92-55.20Q145.28-54.72 148.76-54L148.76-54L148.76-54Q152.24-53.28 155.52-52.40L155.52-52.40L155.52-52.40Q155.68-52.24 156.20-52.12L156.20-52.12L156.20-52.12Q156.72-52 156.72-51.76L156.72-51.76L156.72-51.76Q156.72-51.60 156.24-51.52L156.24-51.52L156.24-51.52Q155.76-51.44 155.52-51.28L155.52-51.28L155.52-51.28Q154.80-51.12 153.72-51.12L153.72-51.12L153.72-51.12Q152.64-51.12 151.48-51.16L151.48-51.16L151.48-51.16Q150.32-51.20 149.20-51.28L149.20-51.28L149.20-51.28Q148.08-51.36 147.28-51.52L147.28-51.52L147.28-51.52Q146.72-51.60 144.52-51.84L144.52-51.84L144.52-51.84Q142.32-52.08 139.68-52.16L139.68-52.16L139.68-52.16Q137.04-52.24 134.60-52.12L134.60-52.12L134.60-52.12Q132.16-52 131.12-51.44L131.12-51.44L131.12-51.44Q130.80-51.28 130.72-51.28L130.72-51.28L130.64-51.28L130.64-51.28Q130.64-51.60 130.96-51.92L130.96-51.92L130.96-51.92Q131.76-52.96 133.16-53.68L133.16-53.68L133.16-53.68Q134.56-54.40 136.08-54.80L136.08-54.80L136.08-54.80Q137.60-55.20 139.16-55.28L139.16-55.28L139.16-55.28Q140.72-55.36 141.92-55.20" fill="#d9ff9f" stroke="none" stroke-width="none" transform="translate(-154.92666625976562,18.827805291253167)" style="fill: rgb(243, 76, 131);"></path></g><g class="path" style="transform: matrix(1, 0, 0, 1, 0, 31.84); opacity: 0.05; transform-origin: -10.5019px 12.1878px; animation: 2.7027s linear 0.819576s 1 normal forwards running float-btt-in-559632af-4aac-4adc-a1d1-3edf0a1dd310;"><path d="M144.56-5.68L144.56-5.68L144.56-5.68Q144.80-4.32 145.16-2.96L145.16-2.96L145.16-2.96Q145.52-1.60 146.08-0.32L146.08-0.32L146.08-0.32Q146.40 0.32 146.16 0.32L146.16 0.32L146.16 0.32Q146 0.32 145.68 0.16L145.68 0.16L145.68 0.16Q145.52 0.08 145.44-0.08L145.44-0.08L145.44-0.08Q144.40-1.28 143.80-2.32L143.80-2.32L143.80-2.32Q143.20-3.36 142.80-5.68L142.80-5.68L142.80-5.68Q142.64-6.56 142.60-7.92L142.60-7.92L142.60-7.92Q142.56-9.28 142.64-10.56L142.64-10.56L142.64-10.56Q142.72-11.84 142.88-12.72L142.88-12.72L142.88-12.72Q143.04-13.60 143.36-13.60L143.36-13.60L143.36-13.60Q143.44-13.60 143.56-13.20L143.56-13.20L143.56-13.20Q143.68-12.80 143.76-12.28L143.76-12.28L143.76-12.28Q143.84-11.76 143.92-11.24L143.92-11.24L143.92-11.24Q144-10.72 144-10.56L144-10.56L144-10.56Q144.16-9.20 144.28-8L144.28-8L144.28-8Q144.40-6.80 144.56-5.68" fill="#d9ff9f" stroke="none" stroke-width="none" transform="translate(-154.92666625976562,18.827805291253167)" style="fill: rgb(233, 233, 233);"></path></g><g class="path" style="transform: matrix(1, 0, 0, 1, 0, 31.84); opacity: 0.05; transform-origin: 11.9933px -36.91px; animation: 2.7027s linear 0.867787s 1 normal forwards running float-btt-in-559632af-4aac-4adc-a1d1-3edf0a1dd310;"><path d="M167.76-55.76L167.76-55.76L167.76-55.76Q169.52-57.28 170.72-59.04L170.72-59.04L170.72-59.04Q170.88-59.36 171.04-59.36L171.04-59.36L171.04-59.36Q171.12-59.36 171.12-58.80L171.12-58.80L171.12-58.80Q171.12-58.48 171.04-58.24L171.04-58.24L171.04-58.24Q170.72-56.88 170.32-56.08L170.32-56.08L170.32-56.08Q169.92-55.28 168.40-54.16L168.40-54.16L168.40-54.16Q167.84-53.68 166.88-53.24L166.88-53.24L166.88-53.24Q165.92-52.80 165.04-52.48L165.04-52.48L165.04-52.48Q164.16-52.16 163.48-52.12L163.48-52.12L163.48-52.12Q162.80-52.08 162.72-52.40L162.72-52.40L162.72-52.40Q162.72-52.48 162.96-52.68L162.96-52.68L162.96-52.68Q163.20-52.88 163.56-53.12L163.56-53.12L163.56-53.12Q163.92-53.36 164.24-53.56L164.24-53.56L164.24-53.56Q164.56-53.76 164.72-53.84L164.72-53.84L164.72-53.84Q165.52-54.24 166.28-54.72L166.28-54.72L166.28-54.72Q167.04-55.20 167.76-55.76" fill="#d9ff9f" stroke="none" stroke-width="none" transform="translate(-154.92666625976562,18.827805291253167)" style="fill: rgb(217, 255, 159);"></path></g><g class="path" style="transform: matrix(1, 0, 0, 1, 0, 31.84); opacity: 0.05; transform-origin: 32.7053px 13.3716px; animation: 2.7027s linear 0.915997s 1 normal forwards running float-btt-in-559632af-4aac-4adc-a1d1-3edf0a1dd310;"><path d="M186.40-3.36L186.40-3.36L186.40-3.36Q189.28-3.84 191.96-5.12L191.96-5.12L191.96-5.12Q194.64-6.40 196.80-8.40L196.80-8.40L196.80-8.40Q196.96-8.48 197.44-8.96L197.44-8.96L197.44-8.96Q197.92-9.44 198.08-9.28L198.08-9.28L198.08-9.28Q198.24-9.12 198-8.80L198-8.80L198-8.80Q197.76-8.48 197.60-8.24L197.60-8.24L197.60-8.24Q196-5.92 193.40-4.44L193.40-4.44L193.40-4.44Q190.80-2.96 188-2.08L188-2.08L188-2.08Q185.68-1.44 183.04-1.64L183.04-1.64L183.04-1.64Q180.40-1.84 178.08-2.96L178.08-2.96L178.08-2.96Q177.36-3.28 177.20-3.48L177.20-3.48L177.20-3.48Q177.04-3.68 177.20-3.76L177.20-3.76L177.20-3.76Q177.36-3.84 177.72-3.84L177.72-3.84L177.72-3.84Q178.08-3.84 178.40-3.76L178.40-3.76L178.40-3.76Q179.28-3.60 180.44-3.48L180.44-3.48L180.44-3.48Q181.60-3.36 182.76-3.32L182.76-3.32L182.76-3.32Q183.92-3.28 184.88-3.28L184.88-3.28L184.88-3.28Q185.84-3.28 186.40-3.36" fill="#d9ff9f" stroke="none" stroke-width="none" transform="translate(-154.92666625976562,18.827805291253167)" style="fill: rgb(199, 199, 199);"></path></g><g class="path" style="transform: matrix(1, 0, 0, 1, 0, 31.84); opacity: 0.05; transform-origin: 32.3348px -9.26001px; animation: 2.7027s linear 0.964207s 1 normal forwards running float-btt-in-559632af-4aac-4adc-a1d1-3edf0a1dd310;"><path d="M175.68-26.88L175.68-26.88L175.68-26.88Q175.28-24.08 175.28-21.40L175.28-21.40L175.28-21.40Q175.28-18.72 175.64-16.36L175.64-16.36L175.64-16.36Q176-14 176.76-12.16L176.76-12.16L176.76-12.16Q177.52-10.32 178.64-9.12L178.64-9.12L178.64-9.12Q179.92-7.84 181.80-7.16L181.80-7.16L181.80-7.16Q183.68-6.48 185.88-6.48L185.88-6.48L185.88-6.48Q188.08-6.48 190.52-7.12L190.52-7.12L190.52-7.12Q192.96-7.76 195.36-9.12L195.36-9.12L195.36-9.12Q195.84-9.44 196-9.28L196-9.28L196-9.28Q196.16-9.12 195.88-8.92L195.88-8.92L195.88-8.92Q195.60-8.72 195.36-8.56L195.36-8.56L195.36-8.56Q193.28-6.96 190.96-6L190.96-6L190.96-6Q188.64-5.04 186.28-4.80L186.28-4.80L186.28-4.80Q183.92-4.56 181.72-5.08L181.72-5.08L181.72-5.08Q179.52-5.60 177.76-7.04L177.76-7.04L177.76-7.04Q176.08-8.48 175.04-10.52L175.04-10.52L175.04-10.52Q174-12.56 173.48-15L173.48-15L173.48-15Q172.96-17.44 172.88-20.08L172.88-20.08L172.88-20.08Q172.80-22.72 173.04-25.28L173.04-25.28L173.04-25.28Q173.36-29.36 174.64-33.52L174.64-33.52L174.64-33.52Q175.92-37.68 178.04-41.20L178.04-41.20L178.04-41.20Q180.16-44.72 183.12-47.36L183.12-47.36L183.12-47.36Q186.08-50 189.76-51.04L189.76-51.04L189.76-51.04Q191.60-51.52 193.52-51.44L193.52-51.44L193.52-51.44Q195.44-51.36 197.08-50.72L197.08-50.72L197.08-50.72Q198.72-50.08 199.92-48.84L199.92-48.84L199.92-48.84Q201.12-47.60 201.52-45.84L201.52-45.84L201.52-45.84Q201.92-43.92 201.20-42.12L201.20-42.12L201.20-42.12Q200.48-40.32 199.20-39L199.20-39L199.20-39Q197.92-37.68 196.32-37.12L196.32-37.12L196.32-37.12Q194.72-36.56 193.28-37.12L193.28-37.12L193.28-37.12Q193.20-37.12 193.16-37.36L193.16-37.36L193.16-37.36Q193.12-37.60 193.44-37.52L193.44-37.52L193.44-37.52Q194.40-37.36 195.64-37.96L195.64-37.96L195.64-37.96Q196.88-38.56 197.88-39.60L197.88-39.60L197.88-39.60Q198.88-40.64 199.48-42.08L199.48-42.08L199.48-42.08Q200.08-43.52 199.84-45.04L199.84-45.04L199.84-45.04Q199.60-46.16 198.84-47L198.84-47L198.84-47Q198.08-47.84 196.88-48.36L196.88-48.36L196.88-48.36Q195.68-48.88 194.20-49.04L194.20-49.04L194.20-49.04Q192.72-49.20 191.12-48.88L191.12-48.88L191.12-48.88Q188.08-48.32 185.48-46.20L185.48-46.20L185.48-46.20Q182.88-44.08 180.88-41.04L180.88-41.04L180.88-41.04Q178.88-38 177.52-34.28L177.52-34.28L177.52-34.28Q176.16-30.56 175.68-26.88" fill="#d9ff9f" stroke="none" stroke-width="none" transform="translate(-154.92666625976562,18.827805291253167)" style="fill: rgb(124, 177, 196);"></path></g><g class="path" style="transform: matrix(1, 0, 0, 1, 0, 31.84); opacity: 0.05; transform-origin: 30.4539px -10.3402px; animation: 2.7027s linear 1.01242s 1 normal forwards running float-btt-in-559632af-4aac-4adc-a1d1-3edf0a1dd310;"><path d="M182-0.40L182-0.40L182-0.40Q182.88-0.32 183.80-0.32L183.80-0.32L183.80-0.32Q184.72-0.32 184.72-0.08L184.72-0.08L184.72-0.08Q184.72 0 184.40 0.04L184.40 0.04L184.40 0.04Q184.08 0.08 183.72 0.08L183.72 0.08L183.72 0.08Q183.36 0.08 182.96 0.08L182.96 0.08L182.96 0.08Q182.56 0.08 182.48 0.08L182.48 0.08L182.48 0.08Q180 0.08 177.60-0.64L177.60-0.64L177.60-0.64Q175.20-1.36 173.16-2.68L173.16-2.68L173.16-2.68Q171.12-4 169.52-5.92L169.52-5.92L169.52-5.92Q167.92-7.84 167.12-10.32L167.12-10.32L167.12-10.32Q165.52-15.20 165.28-19.84L165.28-19.84L165.28-19.84Q165.04-24.48 165.68-28.96L165.68-28.96L165.68-28.96Q166-31.52 166.92-34.76L166.92-34.76L166.92-34.76Q167.84-38 169.40-41.36L169.40-41.36L169.40-41.36Q170.96-44.72 173.32-48L173.32-48L173.32-48Q175.68-51.28 178.96-54L178.96-54L178.96-54Q182.40-56.88 186.60-57.84L186.60-57.84L186.60-57.84Q190.80-58.80 194.64-58.16L194.64-58.16L194.64-58.16Q198.48-57.52 201.44-55.48L201.44-55.48L201.44-55.48Q204.40-53.44 205.36-50.32L205.36-50.32L205.36-50.32Q205.44-50.16 205.52-49.64L205.52-49.64L205.52-49.64Q205.60-49.12 205.44-48.96L205.44-48.96L205.44-48.96Q205.36-48.88 205.20-49.36L205.20-49.36L205.20-49.36Q205.04-49.84 204.88-50L204.88-50L204.88-50Q201.52-54.56 197.28-55.80L197.28-55.80L197.28-55.80Q193.04-57.04 188.88-56.04L188.88-56.04L188.88-56.04Q184.72-55.04 181.04-52.36L181.04-52.36L181.04-52.36Q177.36-49.68 175.20-46.40L175.20-46.40L175.20-46.40Q171.44-40.72 169.48-34.32L169.48-34.32L169.48-34.32Q167.52-27.92 167.68-21.12L167.68-21.12L167.68-21.12Q167.76-18 168.36-14.56L168.36-14.56L168.36-14.56Q168.96-11.12 170.72-8L170.72-8L170.72-8Q172.48-4.80 175.56-2.68L175.56-2.68L175.56-2.68Q178.64-0.56 182-0.40" fill="#d9ff9f" stroke="none" stroke-width="none" transform="translate(-154.92666625976562,18.827805291253167)" style="fill: rgb(225, 225, 225);"></path></g><g class="path" style="transform: matrix(1, 0, 0, 1, 0, 31.84); opacity: 0.05; transform-origin: 32.591px -22.5544px; animation: 2.7027s linear 1.06063s 1 normal forwards running float-btt-in-559632af-4aac-4adc-a1d1-3edf0a1dd310;"><path d="M170.48-30.48L170.48-30.48L170.48-30.48Q171.12-34.72 172.52-38.72L172.52-38.72L172.52-38.72Q173.92-42.72 176.20-46.04L176.20-46.04L176.20-46.04Q178.48-49.36 181.84-51.76L181.84-51.76L181.84-51.76Q185.20-54.16 189.76-55.12L189.76-55.12L189.76-55.12Q191.36-55.44 193.36-55.40L193.36-55.40L193.36-55.40Q195.36-55.36 197.36-54.68L197.36-54.68L197.36-54.68Q199.36-54 201.08-52.64L201.08-52.64L201.08-52.64Q202.80-51.28 203.92-48.88L203.92-48.88L203.92-48.88Q204.96-46.56 204.64-44.32L204.64-44.32L204.64-44.32Q204.32-42.08 203.28-40.28L203.28-40.28L203.28-40.28Q202.24-38.48 200.72-37.28L200.72-37.28L200.72-37.28Q199.20-36.08 197.76-35.92L197.76-35.92L197.76-35.92Q196.88-35.76 196.80-35.96L196.80-35.96L196.80-35.96Q196.72-36.16 197.68-36.48L197.68-36.48L197.68-36.48Q199.20-36.96 200.76-38.92L200.76-38.92L200.76-38.92Q202.32-40.88 202.64-43.92L202.64-43.92L202.64-43.92Q202.80-45.44 202.24-46.92L202.24-46.92L202.24-46.92Q201.68-48.40 200.64-49.52L200.64-49.52L200.64-49.52Q199.60-50.64 198.16-51.44L198.16-51.44L198.16-51.44Q196.72-52.24 195.12-52.48L195.12-52.48L195.12-52.48Q191.68-52.96 188.80-52L188.80-52L188.80-52Q185.92-51.04 183.80-49.56L183.80-49.56L183.80-49.56Q181.68-48.08 180.36-46.64L180.36-46.64L180.36-46.64Q179.04-45.20 178.72-44.72L178.72-44.72L178.72-44.72Q176.24-41.60 174.40-37.96L174.40-37.96L174.40-37.96Q172.56-34.32 171.36-30.32L171.36-30.32L171.36-30.32Q171.36-30.24 171.24-29.76L171.24-29.76L171.24-29.76Q171.12-29.28 171-28.76L171-28.76L171-28.76Q170.88-28.24 170.72-27.80L170.72-27.80L170.72-27.80Q170.56-27.36 170.48-27.36L170.48-27.36L170.48-27.36Q170.32-27.36 170.32-27.84L170.32-27.84L170.32-27.84Q170.32-28.32 170.32-28.84L170.32-28.84L170.32-28.84Q170.32-29.36 170.40-29.84L170.40-29.84L170.40-29.84Q170.48-30.32 170.48-30.48" fill="#d9ff9f" stroke="none" stroke-width="none" transform="translate(-154.92666625976562,18.827805291253167)" style="fill: rgb(243, 76, 131);"></path></g><g class="path" style="transform: matrix(1, 0, 0, 1, 0, 31.84); opacity: 0.05; transform-origin: 71.4733px -10.4522px; animation: 2.7027s linear 1.10884s 1 normal forwards running float-btt-in-559632af-4aac-4adc-a1d1-3edf0a1dd310;"><path d="M247.60-35.92L247.60-35.92L247.60-35.92Q247.60-32.24 246.92-28.12L246.92-28.12L246.92-28.12Q246.24-24 244.84-20L244.84-20L244.84-20Q243.44-16 241.36-12.40L241.36-12.40L241.36-12.40Q239.28-8.80 236.44-6.04L236.44-6.04L236.44-6.04Q233.60-3.28 230-1.64L230-1.64L230-1.64Q226.40 0 222.08 0L222.08 0L222.08 0Q218.08 0 215.16-2.36L215.16-2.36L215.16-2.36Q212.24-4.72 210.44-8.56L210.44-8.56L210.44-8.56Q208.64-12.40 207.96-17.36L207.96-17.36L207.96-17.36Q207.28-22.32 207.76-27.44L207.76-27.44L207.76-27.44Q208.24-32.56 209.80-37.52L209.80-37.52L209.80-37.52Q211.36-42.48 214.08-46.32L214.08-46.32L214.08-46.32Q216.80-50.16 220.64-52.52L220.64-52.52L220.64-52.52Q224.48-54.88 229.44-54.88L229.44-54.88L229.44-54.88Q233.36-54.88 236-53.12L236-53.12L236-53.12Q238.64-51.36 240.28-48.64L240.28-48.64L240.28-48.64Q241.92-45.92 242.64-42.60L242.64-42.60L242.64-42.60Q243.36-39.28 243.36-36.16L243.36-36.16L243.36-36.16Q243.36-32.40 242.72-28.84L242.72-28.84L242.72-28.84Q242.08-25.28 240.48-21.92L240.48-21.92L240.48-21.92Q240-20.80 239.96-21.16L239.96-21.16L239.96-21.16Q239.92-21.52 240.08-22.24L240.08-22.24L240.08-22.24Q240.64-25.12 241.08-27.96L241.08-27.96L241.08-27.96Q241.52-30.80 241.52-33.76L241.52-33.76L241.52-33.76Q241.52-36.56 240.96-39.84L240.96-39.84L240.96-39.84Q240.40-43.12 239.04-45.92L239.04-45.92L239.04-45.92Q237.68-48.72 235.28-50.60L235.28-50.60L235.28-50.60Q232.88-52.48 229.20-52.48L229.20-52.48L229.20-52.48Q226.08-52.48 223.36-51.28L223.36-51.28L223.36-51.28Q220.64-50.08 218.44-48.08L218.44-48.08L218.44-48.08Q216.24-46.08 214.56-43.40L214.56-43.40L214.56-43.40Q212.88-40.72 211.68-37.84L211.68-37.84L211.68-37.84Q210.72-35.44 210.08-31.80L210.08-31.80L210.08-31.80Q209.44-28.16 209.36-24.16L209.36-24.16L209.36-24.16Q209.28-20.16 209.84-16.08L209.84-16.08L209.84-16.08Q210.40-12 211.92-8.80L211.92-8.80L211.92-8.80Q213.44-5.60 215.92-3.56L215.92-3.56L215.92-3.56Q218.40-1.52 222.16-1.52L222.16-1.52L222.16-1.52Q226.08-1.52 229.60-3.72L229.60-3.72L229.60-3.72Q233.12-5.92 235.96-9.24L235.96-9.24L235.96-9.24Q238.80-12.56 240.80-16.36L240.80-16.36L240.80-16.36Q242.80-20.16 243.68-23.44L243.68-23.44L243.68-23.44Q244.48-26.32 244.92-29.88L244.92-29.88L244.92-29.88Q245.36-33.44 245.16-37.08L245.16-37.08L245.16-37.08Q244.96-40.72 244.04-44.16L244.04-44.16L244.04-44.16Q243.12-47.60 241.28-50.28L241.28-50.28L241.28-50.28Q239.44-52.96 236.60-54.60L236.60-54.60L236.60-54.60Q233.76-56.24 229.68-56.24L229.68-56.24L229.68-56.24Q223.60-56.24 219.20-53.20L219.20-53.20L219.20-53.20Q214.80-50.16 211.96-45.52L211.96-45.52L211.96-45.52Q209.12-40.88 207.76-35.28L207.76-35.28L207.76-35.28Q206.40-29.68 206.40-24.56L206.40-24.56L206.40-24.56Q206.40-22.16 206.72-19.72L206.72-19.72L206.72-19.72Q207.04-17.28 207.20-15.68L207.20-15.68L207.20-15.68Q207.28-15.04 207.08-15L207.08-15L207.08-15Q206.88-14.96 206.64-15.60L206.64-15.60L206.64-15.60Q206.32-16.64 206.08-18.04L206.08-18.04L206.08-18.04Q205.84-19.44 205.64-21L205.64-21L205.64-21Q205.44-22.56 205.32-24.12L205.32-24.12L205.32-24.12Q205.20-25.68 205.20-27.04L205.20-27.04L205.20-27.04Q205.20-32.64 206.68-38.28L206.68-38.28L206.68-38.28Q208.16-43.92 211.20-48.40L211.20-48.40L211.20-48.40Q214.24-52.88 218.92-55.72L218.92-55.72L218.92-55.72Q223.60-58.56 230-58.56L230-58.56L230-58.56Q234.80-58.56 238.16-56.40L238.16-56.40L238.16-56.40Q241.52-54.24 243.64-50.92L243.64-50.92L243.64-50.92Q245.76-47.60 246.68-43.60L246.68-43.60L246.68-43.60Q247.60-39.60 247.60-35.92" fill="#d9ff9f" stroke="none" stroke-width="none" transform="translate(-154.92666625976562,18.827805291253167)" style="fill: rgb(233, 233, 233);"></path></g><g class="path" style="transform: matrix(1, 0, 0, 1, 0, 31.84); opacity: 0.05; transform-origin: 71.2533px -9.5722px; animation: 2.7027s linear 1.15705s 1 normal forwards running float-btt-in-559632af-4aac-4adc-a1d1-3edf0a1dd310;"><path d="M240.08-35.20L240.08-35.20L240.08-35.20Q240.08-31.76 239.28-27.96L239.28-27.96L239.28-27.96Q238.48-24.16 236.92-20.52L236.92-20.52L236.92-20.52Q235.36-16.88 233.12-13.72L233.12-13.72L233.12-13.72Q230.88-10.56 228-8.32L228-8.32L228-8.32Q226.64-7.28 225.08-6.56L225.08-6.56L225.08-6.56Q223.52-5.84 221.68-5.84L221.68-5.84L221.68-5.84Q220.08-5.84 219-6.52L219-6.52L219-6.52Q217.92-7.20 217.12-8.40L217.12-8.40L217.12-8.40Q216.48-9.28 216.72-9.28L216.72-9.28L216.72-9.28Q216.96-9.28 217.60-8.64L217.60-8.64L217.60-8.64Q218.32-8 219.04-7.52L219.04-7.52L219.04-7.52Q219.76-7.04 220.96-7.04L220.96-7.04L220.96-7.04Q223.20-7.04 225.24-8.60L225.24-8.60L225.24-8.60Q227.28-10.16 228.64-11.76L228.64-11.76L228.64-11.76Q230.72-14 232.32-16.76L232.32-16.76L232.32-16.76Q233.92-19.52 235-22.52L235-22.52L235-22.52Q236.08-25.52 236.64-28.60L236.64-28.60L236.64-28.60Q237.20-31.68 237.20-34.72L237.20-34.72L237.20-34.72Q237.20-36.72 236.84-39.12L236.84-39.12L236.84-39.12Q236.48-41.52 235.48-43.64L235.48-43.64L235.48-43.64Q234.48-45.76 232.76-47.20L232.76-47.20L232.76-47.20Q231.04-48.64 228.32-48.64L228.32-48.64L228.32-48.64Q225.36-48.64 223.04-47.36L223.04-47.36L223.04-47.36Q220.72-46.08 218.88-44.12L218.88-44.12L218.88-44.12Q217.04-42.16 215.56-39.72L215.56-39.72L215.56-39.72Q214.08-37.28 212.80-34.96L212.80-34.96L212.80-34.96Q212.56-34.48 212.44-34.40L212.44-34.40L212.44-34.40Q212.32-34.32 212.32-34.48L212.32-34.48L212.32-34.48Q212.24-34.64 212.32-34.96L212.32-34.96L212.32-34.96Q213.20-37.92 214.72-40.80L214.72-40.80L214.72-40.80Q216.24-43.68 218.36-45.92L218.36-45.92L218.36-45.92Q220.48-48.16 223.12-49.56L223.12-49.56L223.12-49.56Q225.76-50.96 228.88-50.96L228.88-50.96L228.88-50.96Q231.84-50.96 234-49.36L234-49.36L234-49.36Q236.16-47.76 237.48-45.40L237.48-45.40L237.48-45.40Q238.80-43.04 239.44-40.28L239.44-40.28L239.44-40.28Q240.08-37.52 240.08-35.20" fill="#d9ff9f" stroke="none" stroke-width="none" transform="translate(-154.92666625976562,18.827805291253167)" style="fill: rgb(217, 255, 159);"></path></g><g class="path" style="transform: matrix(1, 0, 0, 1, 0, 31.84); opacity: 0.05; transform-origin: 63.641px 5.2278px; animation: 2.7027s linear 1.20526s 1 normal forwards running float-btt-in-559632af-4aac-4adc-a1d1-3edf0a1dd310;"><path d="M225.60-3.92L225.60-3.92L225.60-3.92Q223.76-2.96 221.68-2.96L221.68-2.96L221.68-2.96Q218.80-2.96 216.72-4.56L216.72-4.56L216.72-4.56Q214.64-6.16 213.24-8.48L213.24-8.48L213.24-8.48Q211.84-10.80 211.20-13.52L211.20-13.52L211.20-13.52Q210.56-16.24 210.56-18.56L210.56-18.56L210.56-18.56Q210.56-19.04 210.64-20L210.64-20L210.64-20Q210.72-20.96 210.84-21.88L210.84-21.88L210.84-21.88Q210.96-22.80 211.16-23.52L211.16-23.52L211.16-23.52Q211.36-24.24 211.68-24.24L211.68-24.24L211.68-24.24Q212-24.24 211.96-23L211.96-23L211.96-23Q211.92-21.76 212.08-19.52L212.08-19.52L212.08-19.52Q212.16-17.76 212.80-15.12L212.80-15.12L212.80-15.12Q213.44-12.48 214.64-10.04L214.64-10.04L214.64-10.04Q215.84-7.60 217.60-5.84L217.60-5.84L217.60-5.84Q219.36-4.08 221.68-4.08L221.68-4.08L221.68-4.08Q223.68-4.08 225.28-4.40L225.28-4.40L225.28-4.40Q226.08-4.56 226.48-4.56L226.48-4.56L226.48-4.56Q226.88-4.56 225.60-3.92" fill="#d9ff9f" stroke="none" stroke-width="none" transform="translate(-154.92666625976562,18.827805291253167)" style="fill: rgb(199, 199, 199);"></path></g><g class="path" style="transform: matrix(1, 0, 0, 1, 0, 31.84); opacity: 0.05; transform-origin: 112.527px -6.47459px; animation: 2.7027s linear 1.25347s 1 normal forwards running float-btt-in-559632af-4aac-4adc-a1d1-3edf0a1dd310;"><path d="M270.40-15.44L270.40-15.44L270.40-15.44Q272.96-13.12 275.20-10.52L275.20-10.52L275.20-10.52Q277.44-7.92 279.52-5.12L279.52-5.12L279.52-5.12Q279.60-4.96 279.96-4.52L279.96-4.52L279.96-4.52Q280.32-4.08 280.16-3.92L280.16-3.92L280.16-3.92Q280.08-3.84 279.56-4.04L279.56-4.04L279.56-4.04Q279.04-4.24 278.88-4.40L278.88-4.40L278.88-4.40Q278.24-4.80 277.40-5.44L277.40-5.44L277.40-5.44Q276.56-6.08 275.64-6.80L275.64-6.80L275.64-6.80Q274.72-7.52 273.84-8.28L273.84-8.28L273.84-8.28Q272.96-9.04 272.40-9.68L272.40-9.68L272.40-9.68Q272-10 270.48-11.32L270.48-11.32L270.48-11.32Q268.96-12.64 267.04-14.16L267.04-14.16L267.04-14.16Q265.12-15.68 263.12-16.96L263.12-16.96L263.12-16.96Q261.12-18.24 259.84-18.56L259.84-18.56L259.84-18.56Q259.60-18.64 259.16-18.80L259.16-18.80L259.16-18.80Q258.72-18.96 258.80-19.36L258.80-19.36L258.80-19.36Q259.44-22.40 260.40-25.28L260.40-25.28L260.40-25.28Q261.36-28.16 262.24-31.20L262.24-31.20L262.24-31.20Q263.36-34.96 264.36-38.88L264.36-38.88L264.36-38.88Q265.36-42.80 265.52-47.36L265.52-47.36L265.52-47.36Q265.52-47.76 265.60-47.76L265.60-47.76L265.60-47.76Q265.84-47.76 266-47.20L266-47.20L266-47.20Q266.96-45.04 266.80-41.60L266.80-41.60L266.80-41.60Q266.64-38.16 265.96-34.44L265.96-34.44L265.96-34.44Q265.28-30.72 264.28-27.32L264.28-27.32L264.28-27.32Q263.28-23.92 262.56-21.92L262.56-21.92L262.32-21.28L262.32-21.28Q265.28-23.28 268.48-25.28L268.48-25.28L268.48-25.28Q271.68-27.28 274.44-29.32L274.44-29.32L274.44-29.32Q277.20-31.36 279.24-33.56L279.24-33.56L279.24-33.56Q281.28-35.76 282-38.16L282-38.16L282-38.16Q282.48-39.76 281.88-41.36L281.88-41.36L281.88-41.36Q281.28-42.96 279.80-44.36L279.80-44.36L279.80-44.36Q278.32-45.76 276.08-46.80L276.08-46.80L276.08-46.80Q273.84-47.84 271.12-48.24L271.12-48.24L271.12-48.24Q267.52-48.72 263.84-48.48L263.84-48.48L263.84-48.48Q264.16-46.08 263.96-43.64L263.96-43.64L263.96-43.64Q263.76-41.20 263.36-39.44L263.36-39.44L263.36-39.44Q262.32-35.12 260.72-30.52L260.72-30.52L260.72-30.52Q259.12-25.92 257.44-21.92L257.44-21.92L257.44-21.92Q257.28-21.68 256.96-21.12L256.96-21.12L256.96-21.12Q256.64-20.56 256.40-20.64L256.40-20.64L256.40-20.64Q256.24-20.72 256.32-21.36L256.32-21.36L256.32-21.36Q256.40-22 256.40-22.24L256.40-22.24L256.40-22.24Q256.48-23.20 256.76-24.60L256.76-24.60L256.76-24.60Q257.04-26 257.32-27.52L257.32-27.52L257.32-27.52Q257.60-29.04 257.96-30.44L257.96-30.44L257.96-30.44Q258.32-31.84 258.64-32.88L258.64-32.88L258.64-32.88Q258.80-33.36 259.16-34.92L259.16-34.92L259.16-34.92Q259.52-36.48 259.92-38.64L259.92-38.64L259.92-38.64Q260.32-40.80 260.72-43.28L260.72-43.28L260.72-43.28Q261.12-45.76 261.36-48.08L261.36-48.08L260.24-47.92L260.24-47.92Q260-44.88 259.28-41.76L259.28-41.76L259.28-41.76Q258.56-38.64 257.64-35.48L257.64-35.48L257.64-35.48Q256.72-32.32 255.72-29.08L255.72-29.08L255.72-29.08Q254.72-25.84 254-22.72L254-22.72L254-22.72Q253.36-19.92 253-16.88L253-16.88L253-16.88Q252.64-13.84 252.76-10.88L252.76-10.88L252.76-10.88Q252.88-7.92 253.48-5.16L253.48-5.16L253.48-5.16Q254.08-2.40 255.44-0.16L255.44-0.16L255.44-0.16Q255.60 0.24 255.44 0.24L255.44 0.24L255.44 0.24Q255.28 0.24 255.04 0L255.04 0L255.04 0Q253.04-2.32 252-5.20L252-5.20L252-5.20Q250.96-8.08 250.68-11.24L250.68-11.24L250.68-11.24Q250.40-14.40 250.76-17.76L250.76-17.76L250.76-17.76Q251.12-21.12 251.84-24.32L251.84-24.32L251.84-24.32Q253.20-30.32 255.12-36.16L255.12-36.16L255.12-36.16Q257.04-42 258.32-47.44L258.32-47.44L258.32-47.44Q256.32-46.96 254.40-46.28L254.40-46.28L254.40-46.28Q252.48-45.60 250.80-44.80L250.80-44.80L250.80-44.80Q250.40-44.64 250.32-44.72L250.32-44.72L250.32-44.72Q250.24-44.80 250.40-45L250.40-45L250.40-45Q250.56-45.20 250.72-45.28L250.72-45.28L250.72-45.28Q254.72-48.56 260.48-49.92L260.48-49.92L260.48-49.92Q266.24-51.28 272.24-50.64L272.24-50.64L272.24-50.64Q275.36-50.24 277.96-48.88L277.96-48.88L277.96-48.88Q280.56-47.52 282.24-45.56L282.24-45.56L282.24-45.56Q283.92-43.60 284.44-41.20L284.44-41.20L284.44-41.20Q284.96-38.80 283.92-36.40L283.92-36.40L283.92-36.40Q282.72-33.60 280.12-31.20L280.12-31.20L280.12-31.20Q277.52-28.80 274.28-26.72L274.28-26.72L274.28-26.72Q271.04-24.64 267.44-22.88L267.44-22.88L267.44-22.88Q263.84-21.12 260.72-19.60L260.72-19.60L260.72-19.60Q262-19.60 263.36-19.20L263.36-19.20L263.36-19.20Q264.72-18.80 266.04-18.20L266.04-18.20L266.04-18.20Q267.36-17.60 268.52-16.88L268.52-16.88L268.52-16.88Q269.68-16.16 270.40-15.44" fill="#d9ff9f" stroke="none" stroke-width="none" transform="translate(-154.92666625976562,18.827805291253167)" style="fill: rgb(124, 177, 196);"></path></g><g class="path" style="transform: matrix(1, 0, 0, 1, 0, 31.84); opacity: 0.05; transform-origin: 121.255px -19.8036px; animation: 2.7027s linear 1.30168s 1 normal forwards running float-btt-in-559632af-4aac-4adc-a1d1-3edf0a1dd310;"><path d="M292.56-35.44L292.56-35.44L292.56-35.44Q291.36-31.28 288.92-28.36L288.92-28.36L288.92-28.36Q286.48-25.44 283.52-23.52L283.52-23.52L283.52-23.52Q280.56-21.60 277.52-20.60L277.52-20.60L277.52-20.60Q274.48-19.60 272.24-19.28L272.24-19.28L272.24-19.28Q271.60-19.12 271.08-19.16L271.08-19.16L271.08-19.16Q270.56-19.20 270.64-19.36L270.64-19.36L270.64-19.36Q270.48-19.52 271-19.68L271-19.68L271-19.68Q271.52-19.84 272.08-20.08L272.08-20.08L272.08-20.08Q276.40-21.68 280.40-24.24L280.40-24.24L280.40-24.24Q284.40-26.80 287.44-31.04L287.44-31.04L287.44-31.04Q288.88-33.04 289.60-35.68L289.60-35.68L289.60-35.68Q290.32-38.32 290.12-41.04L290.12-41.04L290.12-41.04Q289.92-43.76 288.76-46.32L288.76-46.32L288.76-46.32Q287.60-48.88 285.36-50.72L285.36-50.72L285.36-50.72Q282.72-52.96 279.60-54.24L279.60-54.24L279.60-54.24Q276.48-55.52 273.20-56L273.20-56L273.20-56Q269.92-56.48 266.56-56.20L266.56-56.20L266.56-56.20Q263.20-55.92 260.08-55.12L260.08-55.12L260.08-55.12Q259.52-54.96 259.44-54.92L259.44-54.92L259.44-54.92Q259.36-54.88 259.28-55.04L259.28-55.04L259.28-55.04Q259.28-55.12 259.92-55.60L259.92-55.60L259.92-55.60Q261.20-56.40 263.32-57.08L263.32-57.08L263.32-57.08Q265.44-57.76 268.12-58L268.12-58L268.12-58Q270.80-58.24 273.92-57.96L273.92-57.96L273.92-57.96Q277.04-57.68 280.32-56.48L280.32-56.48L280.32-56.48Q283.68-55.36 286.64-53L286.64-53L286.64-53Q289.60-50.64 291.36-47.20L291.36-47.20L291.36-47.20Q293.04-43.84 293.08-40.68L293.08-40.68L293.08-40.68Q293.12-37.52 292.56-35.44" fill="#d9ff9f" stroke="none" stroke-width="none" transform="translate(-154.92666625976562,18.827805291253167)" style="fill: rgb(225, 225, 225);"></path></g><g class="path" style="transform: matrix(1, 0, 0, 1, 0, 31.84); opacity: 0.05; transform-origin: 114.939px -25.5223px; animation: 2.7027s linear 1.34989s 1 normal forwards running float-btt-in-559632af-4aac-4adc-a1d1-3edf0a1dd310;"><path d="M251.92-48.48L251.92-48.48L251.92-48.48Q253.52-50.80 256.16-52.28L256.16-52.28L256.16-52.28Q258.80-53.76 261.92-54.48L261.92-54.48L261.92-54.48Q265.04-55.20 268.44-55.12L268.44-55.12L268.44-55.12Q271.84-55.04 275.04-54.32L275.04-54.32L275.04-54.32Q278.24-53.60 281-52.16L281-52.16L281-52.16Q283.76-50.72 285.60-48.64L285.60-48.64L285.60-48.64Q286.88-47.12 287.56-45.40L287.56-45.40L287.56-45.40Q288.24-43.68 288.28-41.88L288.28-41.88L288.28-41.88Q288.32-40.08 287.88-38.40L287.88-38.40L287.88-38.40Q287.44-36.72 286.64-35.28L286.64-35.28L286.64-35.28Q286.48-34.96 285.84-34.20L285.84-34.20L285.84-34.20Q285.20-33.44 285.04-33.60L285.04-33.60L285.04-33.60Q284.88-33.68 285.28-34.48L285.28-34.48L285.28-34.48Q285.68-35.28 285.84-35.68L285.84-35.68L285.84-35.68Q286.48-37.76 286.36-39.80L286.36-39.80L286.36-39.80Q286.24-41.84 285.56-43.60L285.56-43.60L285.56-43.60Q284.88-45.36 283.76-46.76L283.76-46.76L283.76-46.76Q282.64-48.16 281.36-49.04L281.36-49.04L281.36-49.04Q278.32-51.04 274.48-51.88L274.48-51.88L274.48-51.88Q270.64-52.72 266.68-52.52L266.68-52.52L266.68-52.52Q262.72-52.32 258.96-51.16L258.96-51.16L258.96-51.16Q255.20-50 252.48-48.08L252.48-48.08L252.48-48.08Q251.76-47.44 251.52-47.68L251.52-47.68L251.52-47.68Q251.36-47.76 251.56-48.04L251.56-48.04L251.56-48.04Q251.76-48.32 251.92-48.48" fill="#d9ff9f" stroke="none" stroke-width="none" transform="translate(-154.92666625976562,18.827805291253167)" style="fill: rgb(243, 76, 131);"></path></g><g class="path" style="transform: matrix(1, 0, 0, 1, 0, 31.84); opacity: 0.05; transform-origin: 120.513px 11.5125px; animation: 2.7027s linear 1.3981s 1 normal forwards running float-btt-in-559632af-4aac-4adc-a1d1-3edf0a1dd310;"><path d="M294.56 1.92L294.56 1.92L294.56 1.92Q295.04 1.84 295.04 2L295.04 2L295.04 2Q295.04 2.16 294.64 2.32L294.64 2.32L294.64 2.32Q291.76 3.36 289.04 3.44L289.04 3.44L289.04 3.44Q286.32 3.52 283.84 2.92L283.84 2.92L283.84 2.92Q281.36 2.32 279.20 1.24L279.20 1.24L279.20 1.24Q277.04 0.16 275.28-1.12L275.28-1.12L275.28-1.12Q273.20-2.64 271.32-4.52L271.32-4.52L271.32-4.52Q269.44-6.40 267.68-8.28L267.68-8.28L267.68-8.28Q265.92-10.16 264.16-11.92L264.16-11.92L264.16-11.92Q262.40-13.68 260.56-15.04L260.56-15.04L260.56-15.04Q259.20-10.56 258.08-7.12L258.08-7.12L258.08-7.12Q257.92-6.72 257.76-6.40L257.76-6.40L257.76-6.40Q257.60-6.08 257.44-6.16L257.44-6.16L257.44-6.16Q257.28-6.24 257.28-6.60L257.28-6.60L257.28-6.60Q257.28-6.96 257.28-7.36L257.28-7.36L257.28-7.36Q257.44-9.60 257.60-11.92L257.60-11.92L257.60-11.92Q257.76-14.24 258.32-16.56L258.32-16.56L258.32-16.56Q257.76-16.88 257.24-17.12L257.24-17.12L257.24-17.12Q256.72-17.36 256.08-17.68L256.08-17.68L256.08-17.68Q255.84-17.92 255.84-18L255.84-18L255.84-18Q255.84-18.08 256.04-18.08L256.04-18.08L256.04-18.08Q256.24-18.08 256.40-18.08L256.40-18.08L256.40-18.08Q259.60-17.84 262.24-16.12L262.24-16.12L262.24-16.12Q264.88-14.40 267.36-12.08L267.36-12.08L267.36-12.08Q269.84-9.76 272.24-7.16L272.24-7.16L272.24-7.16Q274.64-4.56 277.36-2.56L277.36-2.56L277.36-2.56Q278.88-1.44 280.84-0.52L280.84-0.52L280.84-0.52Q282.80 0.40 285.04 1.04L285.04 1.04L285.04 1.04Q287.28 1.68 289.72 1.96L289.72 1.96L289.72 1.96Q292.16 2.24 294.56 1.92" fill="#d9ff9f" stroke="none" stroke-width="none" transform="translate(-154.92666625976562,18.827805291253167)" style="fill: rgb(233, 233, 233);"></path></g><g class="path" style="transform: matrix(1, 0, 0, 1, 0, 31.84); opacity: 0.05; transform-origin: 122.558px 5.79498px; animation: 2.7027s linear 1.44631s 1 normal forwards running float-btt-in-559632af-4aac-4adc-a1d1-3edf0a1dd310;"><path d="M282.16-9.76L282.16-9.76L282.16-9.76Q284.40-7.76 286.44-5.28L286.44-5.28L286.44-5.28Q288.48-2.80 290.40-1.28L290.40-1.28L290.40-1.28Q290.96-0.72 290.88-0.48L290.88-0.48L290.88-0.48Q290.72-0.32 290.48-0.40L290.48-0.40L290.48-0.40Q290.24-0.48 289.92-0.56L289.92-0.56L289.92-0.56Q287.76-1.28 285.88-2.56L285.88-2.56L285.88-2.56Q284-3.84 282.24-5.44L282.24-5.44L282.24-5.44Q280.48-7.04 278.84-8.80L278.84-8.80L278.84-8.80Q277.20-10.56 275.52-12.24L275.52-12.24L275.52-12.24Q274.40-13.36 273.08-14.72L273.08-14.72L273.08-14.72Q271.76-16.08 270.32-17.24L270.32-17.24L270.32-17.24Q268.88-18.40 267.32-19.16L267.32-19.16L267.32-19.16Q265.76-19.92 264.08-19.92L264.08-19.92L267.20-21.28L267.20-21.28Q268.40-21.84 270.16-22.64L270.16-22.64L270.16-22.64Q271.92-23.44 273.52-24.16L273.52-24.16L273.52-24.16Q275.12-24.88 276.32-25.32L276.32-25.32L276.32-25.32Q277.52-25.76 277.60-25.68L277.60-25.68L277.60-25.68Q277.68-25.52 277.32-25.12L277.32-25.12L277.32-25.12Q276.96-24.72 276.36-24.24L276.36-24.24L276.36-24.24Q275.76-23.76 275.20-23.36L275.20-23.36L275.20-23.36Q274.64-22.96 274.40-22.88L274.40-22.88L274.40-22.88Q272.88-22 271.56-21.24L271.56-21.24L271.56-21.24Q270.24-20.48 268.88-19.84L268.88-19.84L268.88-19.84Q270.72-19.12 272.64-17.80L272.64-17.80L272.64-17.80Q274.56-16.48 276.32-14.96L276.32-14.96L276.32-14.96Q278.08-13.44 279.60-12.04L279.60-12.04L279.60-12.04Q281.12-10.64 282.16-9.76" fill="#d9ff9f" stroke="none" stroke-width="none" transform="translate(-154.92666625976562,18.827805291253167)" style="fill: rgb(217, 255, 159);"></path></g><g class="path" style="transform: matrix(1, 0, 0, 1, 0, 31.84); opacity: 0.05; transform-origin: 101.217px 12.6278px; animation: 2.7027s linear 1.49452s 1 normal forwards running float-btt-in-559632af-4aac-4adc-a1d1-3edf0a1dd310;"><path d="M256.24-4.80L256.24-4.80L256.24-4.80Q256.48-3.44 256.88-2.16L256.88-2.16L256.88-2.16Q257.28-0.88 257.84 0L257.84 0L257.84 0Q257.92 0 257.96 0.12L257.96 0.12L257.96 0.12Q258 0.24 257.84 0.24L257.84 0.24L257.84 0.24Q257.68 0.24 257.48 0.12L257.48 0.12L257.48 0.12Q257.28 0 257.12 0L257.12 0L257.12 0Q256.08-0.64 255.48-1.56L255.48-1.56L255.48-1.56Q254.88-2.48 254.48-4.80L254.48-4.80L254.48-4.80Q254.32-5.68 254.32-7.04L254.32-7.04L254.32-7.04Q254.32-8.40 254.40-9.64L254.40-9.64L254.40-9.64Q254.48-10.88 254.64-11.76L254.64-11.76L254.64-11.76Q254.80-12.64 255.12-12.64L255.12-12.64L255.12-12.64Q255.20-12.64 255.32-12.24L255.32-12.24L255.32-12.24Q255.44-11.84 255.52-11.32L255.52-11.32L255.52-11.32Q255.60-10.80 255.64-10.32L255.64-10.32L255.64-10.32Q255.68-9.84 255.68-9.68L255.68-9.68L255.68-9.68Q255.84-8.32 255.92-7.12L255.92-7.12L255.92-7.12Q256-5.92 256.24-4.80" fill="#d9ff9f" stroke="none" stroke-width="none" transform="translate(-154.92666625976562,18.827805291253167)" style="fill: rgb(199, 199, 199);"></path></g><g class="path" style="transform: matrix(1, 0, 0, 1, 0, 31.84); opacity: 0.05; transform-origin: 135.557px 19.2484px; animation: 2.7027s linear 1.54273s 1 normal forwards running float-btt-in-559632af-4aac-4adc-a1d1-3edf0a1dd310;"><path d="M291.28 0.24L291.28 0.24L291.28 0.24Q292.56 0.32 293.24 0.28L293.24 0.28L293.24 0.28Q293.92 0.24 295.04 0.08L295.04 0.08L295.04 0.08Q295.12 0.08 295.44 0.04L295.44 0.04L295.44 0.04Q295.76 0 295.84 0.08L295.84 0.08L295.84 0.08Q295.92 0.24 295.64 0.48L295.64 0.48L295.64 0.48Q295.36 0.72 295.20 0.80L295.20 0.80L295.20 0.80Q293.92 1.20 292.84 1.36L292.84 1.36L292.84 1.36Q291.76 1.52 289.68 1.28L289.68 1.28L289.68 1.28Q288.96 1.20 288.08 0.96L288.08 0.96L288.08 0.96Q287.20 0.72 286.48 0.44L286.48 0.44L286.48 0.44Q285.76 0.16 285.36-0.12L285.36-0.12L285.36-0.12Q284.96-0.40 285.20-0.56L285.20-0.56L285.20-0.56Q285.36-0.64 286.20-0.44L286.20-0.44L286.20-0.44Q287.04-0.24 287.36-0.16L287.36-0.16L287.36-0.16Q288.48 0.08 289.44 0.16L289.44 0.16L289.44 0.16Q290.40 0.24 291.28 0.24" fill="#d9ff9f" stroke="none" stroke-width="none" transform="translate(-154.92666625976562,18.827805291253167)" style="fill: rgb(124, 177, 196);"></path></g><g class="path" style="transform: matrix(1, 0, 0, 1, 0, 31.84); opacity: 0.05; transform-origin: 159.938px -21.8392px; animation: 2.7027s linear 1.59094s 1 normal forwards running float-btt-in-559632af-4aac-4adc-a1d1-3edf0a1dd310;"><path d="M333.76-27.84L333.76-27.84L333.76-27.84Q333.68-27.60 333.48-27.20L333.48-27.20L333.48-27.20Q333.28-26.80 333.04-26.36L333.04-26.36L333.04-26.36Q332.80-25.92 332.56-25.64L332.56-25.64L332.56-25.64Q332.32-25.36 332.24-25.44L332.24-25.44L332.24-25.44Q332.24-25.44 332.32-25.84L332.32-25.84L332.32-25.84Q332.40-26.24 332.52-26.72L332.52-26.72L332.52-26.72Q332.64-27.20 332.76-27.64L332.76-27.64L332.76-27.64Q332.88-28.08 332.88-28.24L332.88-28.24L332.88-28.24Q334.08-34.64 332.88-39.28L332.88-39.28L332.88-39.28Q331.68-43.92 328.84-46.88L328.84-46.88L328.84-46.88Q326-49.84 321.88-51.28L321.88-51.28L321.88-51.28Q317.76-52.72 313.20-52.80L313.20-52.80L313.20-52.80Q309.92-52.80 306.76-52.28L306.76-52.28L306.76-52.28Q303.60-51.76 301-50.96L301-50.96L301-50.96Q298.40-50.16 296.60-49.20L296.60-49.20L296.60-49.20Q294.80-48.24 294.32-47.36L294.32-47.36L294.32-47.36Q293.76-46.40 294-47.60L294-47.60L294-47.60Q294.64-49.68 297.40-51.44L297.40-51.44L297.40-51.44Q300.16-53.20 303.84-54.32L303.84-54.32L303.84-54.32Q307.52-55.44 311.56-55.80L311.56-55.80L311.56-55.80Q315.60-56.16 318.88-55.36L318.88-55.36L318.88-55.36Q321.04-54.88 323.20-54L323.20-54L323.20-54Q325.36-53.12 327.32-51.88L327.32-51.88L327.32-51.88Q329.28-50.64 330.92-48.92L330.92-48.92L330.92-48.92Q332.56-47.20 333.68-44.96L333.68-44.96L333.68-44.96Q335.84-40.64 335.80-36.04L335.80-36.04L335.80-36.04Q335.76-31.44 333.76-27.84" fill="#d9ff9f" stroke="none" stroke-width="none" transform="translate(-154.92666625976562,18.827805291253167)" style="fill: rgb(225, 225, 225);"></path></g><g class="path" style="transform: matrix(1, 0, 0, 1, 0, 31.84); opacity: 0.05; transform-origin: 165.837px -12.9941px; animation: 2.7027s linear 1.63915s 1 normal forwards running float-btt-in-559632af-4aac-4adc-a1d1-3edf0a1dd310;"><path d="M338.96-28.40L338.96-28.40L338.96-28.40Q337.44-23.92 334.92-20.32L334.92-20.32L334.92-20.32Q332.40-16.72 329.52-13.88L329.52-13.88L329.52-13.88Q326.64-11.04 323.60-8.96L323.60-8.96L323.60-8.96Q320.56-6.88 317.92-5.44L317.92-5.44L317.92-5.44Q317.12-5.04 316.56-4.80L316.56-4.80L316.56-4.80Q316-4.56 316-4.72L316-4.72L316-4.72Q315.84-4.80 316.44-5.24L316.44-5.24L316.44-5.24Q317.04-5.68 317.68-6.16L317.68-6.16L317.68-6.16Q322.16-9.76 326.36-13.76L326.36-13.76L326.36-13.76Q330.56-17.76 333.92-22.88L333.92-22.88L333.92-22.88Q335.60-25.52 336.48-28.68L336.48-28.68L336.48-28.68Q337.36-31.84 337.36-35.20L337.36-35.20L337.36-35.20Q337.36-38.56 336.44-41.84L336.44-41.84L336.44-41.84Q335.52-45.12 333.60-47.92L333.60-47.92L333.60-47.92Q331.04-51.60 327.40-53.76L327.40-53.76L327.40-53.76Q323.76-55.92 319.60-56.76L319.60-56.76L319.60-56.76Q315.44-57.60 311.04-57.28L311.04-57.28L311.04-57.28Q306.64-56.96 302.56-55.76L302.56-55.76L302.56-55.76Q301.92-55.60 301.80-55.52L301.80-55.52L301.80-55.52Q301.68-55.44 301.60-55.60L301.60-55.60L301.60-55.60Q301.52-55.76 301.84-55.92L301.84-55.92L301.84-55.92Q302.16-56.08 302.40-56.24L302.40-56.24L302.40-56.24Q304.16-57.20 306.96-58L306.96-58L306.96-58Q309.76-58.80 313.28-58.96L313.28-58.96L313.28-58.96Q316.80-59.12 320.80-58.36L320.80-58.36L320.80-58.36Q324.80-57.60 328.88-55.44L328.88-55.44L328.88-55.44Q333.28-53.04 335.72-49.36L335.72-49.36L335.72-49.36Q338.16-45.68 339.12-41.80L339.12-41.80L339.12-41.80Q340.08-37.92 339.92-34.28L339.92-34.28L339.92-34.28Q339.76-30.64 338.96-28.40" fill="#d9ff9f" stroke="none" stroke-width="none" transform="translate(-154.92666625976562,18.827805291253167)" style="fill: rgb(243, 76, 131);"></path></g><g class="path" style="transform: matrix(1, 0, 0, 1, 0, 31.84); opacity: 0.05; transform-origin: 157.95px -7.3114px; animation: 2.7027s linear 1.68736s 1 normal forwards running float-btt-in-559632af-4aac-4adc-a1d1-3edf0a1dd310;"><path d="M304.16-0.96L304.16-0.96L304.16-0.96Q303.76-1.60 303.16-3L303.16-3L303.16-3Q302.56-4.40 302.24-6.32L302.24-6.32L302.24-6.32Q302.08-7.28 302.04-8.48L302.04-8.48L302.04-8.48Q302-9.68 302.08-10.76L302.08-10.76L302.08-10.76Q302.16-11.84 302.32-12.56L302.32-12.56L302.32-12.56Q302.48-13.28 302.80-13.28L302.80-13.28L302.80-13.28Q302.88-13.28 303-12.84L303-12.84L303-12.84Q303.12-12.40 303.24-11.84L303.24-11.84L303.24-11.84Q303.36-11.28 303.40-10.76L303.40-10.76L303.40-10.76Q303.44-10.24 303.44-10L303.44-10L303.44-10Q303.60-7.92 303.96-5.84L303.96-5.84L303.96-5.84Q304.32-3.76 305.04-1.84L305.04-1.84L305.04-1.84Q307.84-5.28 311.44-8.80L311.44-8.80L311.44-8.80Q315.04-12.32 318.48-15.96L318.48-15.96L318.48-15.96Q321.92-19.60 324.76-23.44L324.76-23.44L324.76-23.44Q327.60-27.28 328.88-31.36L328.88-31.36L328.88-31.36Q329.76-34.16 329.24-37.20L329.24-37.20L329.24-37.20Q328.72-40.24 327.20-42.72L327.20-42.72L327.20-42.72Q325.68-45.12 322.88-46.72L322.88-46.72L322.88-46.72Q320.08-48.32 316.72-48.96L316.72-48.96L316.72-48.96Q315.36-49.20 314.04-49.36L314.04-49.36L314.04-49.36Q312.72-49.52 311.28-49.52L311.28-49.52L311.28-49.52Q311.52-48.32 311.56-46.92L311.56-46.92L311.56-46.92Q311.60-45.52 311.52-44.16L311.52-44.16L311.52-44.16Q311.44-42.80 311.28-41.56L311.28-41.56L311.28-41.56Q311.12-40.32 310.88-39.36L310.88-39.36L310.88-39.36Q309.76-35.04 308.24-30.68L308.24-30.68L308.24-30.68Q306.72-26.32 305.04-22.32L305.04-22.32L305.04-22.32Q304.88-22.08 304.60-21.56L304.60-21.56L304.60-21.56Q304.32-21.04 304.16-21.04L304.16-21.04L304.16-21.04Q304-21.04 304-21.68L304-21.68L304-21.68Q304-22.32 304.08-22.56L304.08-22.56L304.08-22.56Q304.16-23.52 304.40-24.92L304.40-24.92L304.40-24.92Q304.64-26.32 304.92-27.76L304.92-27.76L304.92-27.76Q305.20-29.20 305.52-30.60L305.52-30.60L305.52-30.60Q305.84-32 306.16-32.96L306.16-32.96L306.16-32.96Q306.32-33.44 306.76-35.28L306.76-35.28L306.76-35.28Q307.20-37.12 307.68-39.52L307.68-39.52L307.68-39.52Q308.16-41.92 308.60-44.60L308.60-44.60L308.60-44.60Q309.04-47.28 309.20-49.52L309.20-49.52L308.24-49.52L308.24-49.52Q308.08-46.40 307.36-43.12L307.36-43.12L307.36-43.12Q306.64-39.84 305.64-36.52L305.64-36.52L305.64-36.52Q304.64-33.20 303.56-29.84L303.56-29.84L303.56-29.84Q302.48-26.48 301.68-23.12L301.68-23.12L301.68-23.12Q301.52-22.40 301.24-20.64L301.24-20.64L301.24-20.64Q300.96-18.88 300.80-16.68L300.80-16.68L300.80-16.68Q300.64-14.48 300.64-12.04L300.64-12.04L300.64-12.04Q300.64-9.60 301-7.40L301-7.40L301-7.40Q301.36-5.20 302.08-3.44L302.08-3.44L302.08-3.44Q302.80-1.68 304.16-0.96zM330.72-29.04L330.72-29.04L330.72-29.04Q328.96-24.88 325.88-21.04L325.88-21.04L325.88-21.04Q322.80-17.20 319.20-13.64L319.20-13.64L319.20-13.64Q315.60-10.08 311.80-6.88L311.80-6.88L311.80-6.88Q308-3.68 304.88-0.80L304.88-0.80L304.88-0.80Q304.24-0.24 303.24-0.68L303.24-0.68L303.24-0.68Q302.24-1.12 301.76-1.76L301.76-1.76L301.76-1.76Q300.08-4 299.28-6.80L299.28-6.80L299.28-6.80Q298.48-9.60 298.32-12.60L298.32-12.60L298.32-12.60Q298.16-15.60 298.52-18.68L298.52-18.68L298.52-18.68Q298.88-21.76 299.60-24.64L299.60-24.64L299.60-24.64Q301.20-31.28 303.24-37.48L303.24-37.48L303.24-37.48Q305.28-43.68 306.24-49.28L306.24-49.28L306.24-49.28Q301.92-48.80 298.52-47.32L298.52-47.32L298.52-47.32Q295.12-45.84 294-43.76L294-43.76L294-43.76Q294-43.60 293.88-43.60L293.88-43.60L293.88-43.60Q293.76-43.60 293.92-44.24L293.92-44.24L293.92-44.24Q294.56-46.48 297.04-48.12L297.04-48.12L297.04-48.12Q299.52-49.76 302.96-50.68L302.96-50.68L302.96-50.68Q306.40-51.60 310.36-51.76L310.36-51.76L310.36-51.76Q314.32-51.92 318.08-51.28L318.08-51.28L318.08-51.28Q322.16-50.56 325.16-48.20L325.16-48.20L325.16-48.20Q328.16-45.84 329.88-42.68L329.88-42.68L329.88-42.68Q331.60-39.52 331.88-35.92L331.88-35.92L331.88-35.92Q332.16-32.32 330.72-29.04zM313.52-47.20L313.52-47.20L313.52-47.20Q314.48-45.12 314.28-41.76L314.28-41.76L314.28-41.76Q314.08-38.40 313.36-34.76L313.36-34.76L313.36-34.76Q312.64-31.12 311.72-27.76L311.72-27.76L311.72-27.76Q310.80-24.40 310.32-22.32L310.32-22.32L310.32-22.32Q309.36-18.48 308-14.64L308-14.64L308-14.64Q306.64-10.80 305.76-7.92L305.76-7.92L305.76-7.92Q305.36-6.80 305.20-6.80L305.20-6.80L305.20-6.80Q304.96-6.80 304.96-7.24L304.96-7.24L304.96-7.24Q304.96-7.68 304.96-8.08L304.96-8.08L304.96-8.08Q305.20-14 306.68-19.76L306.68-19.76L306.68-19.76Q308.16-25.52 309.92-31.44L309.92-31.44L309.92-31.44Q310.96-35.04 311.92-38.96L311.92-38.96L311.92-38.96Q312.88-42.88 313.04-47.20L313.04-47.20L313.04-47.20Q313.04-47.76 313.20-47.84L313.20-47.84L313.20-47.84Q313.28-47.84 313.36-47.60L313.36-47.60L313.36-47.60Q313.44-47.36 313.52-47.20" fill="#d9ff9f" stroke="none" stroke-width="none" transform="translate(-154.92666625976562,18.827805291253167)" style="fill: rgb(233, 233, 233);"></path></g><g class="path" style="transform: matrix(1, 0, 0, 1, 0, 31.84); opacity: 0.05; transform-origin: 158.856px 12.4368px; animation: 2.7027s linear 1.73557s 1 normal forwards running float-btt-in-559632af-4aac-4adc-a1d1-3edf0a1dd310;"><path d="M323.04-14L323.04-14L323.04-14Q323.12-13.92 322.72-13.36L322.72-13.36L322.72-13.36Q322.32-12.80 321.72-12.12L321.72-12.12L321.72-12.12Q321.12-11.44 320.52-10.76L320.52-10.76L320.52-10.76Q319.92-10.08 319.68-9.84L319.68-9.84L319.68-9.84Q318-8.16 316.28-6.44L316.28-6.44L316.28-6.44Q314.56-4.72 312.72-3.52L312.72-3.52L305.52 1.04L305.52 1.04Q305.36 1.12 305.08 1.20L305.08 1.20L305.08 1.20Q304.80 1.28 304.64 1.20L304.64 1.20L304.64 1.20Q304.48 1.12 304.52 0.96L304.52 0.96L304.52 0.96Q304.56 0.80 304.64 0.64L304.64 0.64L304.64 0.64Q304.72 0.48 304.88 0.32L304.88 0.32L304.88 0.32Q306.24-0.64 307.96-2.08L307.96-2.08L307.96-2.08Q309.68-3.52 311.52-5.04L311.52-5.04L311.52-5.04Q312.88-6.08 314.76-7.68L314.76-7.68L314.76-7.68Q316.64-9.28 318.44-10.72L318.44-10.72L318.44-10.72Q320.24-12.16 321.56-13.16L321.56-13.16L321.56-13.16Q322.88-14.16 323.04-14" fill="#d9ff9f" stroke="none" stroke-width="none" transform="translate(-154.92666625976562,18.827805291253167)" style="fill: rgb(217, 255, 159);"></path></g></g>
</g>
</g>
<style id="float-btt-in-559632af-4aac-4adc-a1d1-3edf0a1dd310" data-anikit="">@keyframes float-btt-in-559632af-4aac-4adc-a1d1-3edf0a1dd310
{
  0% {
    animation-timing-function: cubic-bezier(0.2242,0.7499,0.3142,0.8148);
    transform: translate(0px,31.84px) rotate(0deg) scale(1,1) skewX(0deg) skewY(0deg);
    opacity: 0.05;
  }
  100% {
    transform: translate(0px,0px) rotate(0deg) scale(1,1) skewX(0deg) skewY(0deg);
    opacity: 1;
  }
}</style></svg>